<svg xmlns="http://www.w3.org/2000/svg" xmlns:xlink="http://www.w3.org/1999/xlink" id="uxSVGContainer" viewBox="0 -567.6000488281251 1755.2 1868.4000488281251"><rect x="12" y="12" width="150" height="266.8" stroke="rgba(199, 199, 199, 0.5019607843137255)" stroke-width="1" style="fill: rgb(255, 255, 255);"></rect><rect x="12" y="12" width="150" height="266.8" stroke-width="NaN" style="fill: rgb(255, 255, 255);"></rect><rect x="12" y="12" width="207.60000000000002" height="653.2"></rect><rect x="12" y="12" width="41.2" height="2.8000000000000003"></rect><rect id="ad62942b-01d9-4210-9bd8-09a3280636ec" x="12" y="12" width="150" height="92" stroke="rgb(149, 152, 154)" stroke-width="0.4" style="fill: rgb(255, 255, 255)"></rect><rect x="12" y="12" width="139.20000000000002" height="159.20000000000002"></rect><rect id="d85f818d-dea7-4ceb-a892-b4311ad6cc39" x="12" y="12" width="150" height="92" stroke="rgb(149, 152, 154)" stroke-width="0.4" style="fill: rgb(255, 255, 255)"></rect><rect id="85f830f8-17a5-4cea-9d7d-1f1bf8c988a1" x="12" y="12" width="150" height="266.8" stroke="rgb(149, 152, 154)" stroke-width="0.4" style="fill: rgb(255, 255, 255)"></rect><rect x="12" y="12" width="121.2" height="19.200000000000003"></rect><rect id="artboard" x="654" y="98" width="150" height="266.8" stroke="rgb(149, 152, 154)" stroke-width="0.4" style="fill: rgb(255, 255, 255)"></rect><rect id="artboard" x="300" y="98" width="150" height="394.40000000000003" stroke="rgb(149, 152, 154)" stroke-width="0.4" style="fill: rgb(255, 255, 255)"></rect><rect id="artboard" x="1049.2" y="-288" width="150" height="266.8" stroke="rgb(149, 152, 154)" stroke-width="0.4" style="fill: rgb(255, 255, 255)"></rect><rect id="artboard" x="695.2" y="-288" width="150" height="266.8" stroke="rgb(149, 152, 154)" stroke-width="0.4" style="fill: rgb(255, 255, 255)"></rect><rect id="artboard" x="517.2" y="-288" width="150" height="266.8" stroke="rgb(149, 152, 154)" stroke-width="0.4" style="fill: rgb(255, 255, 255)"></rect><rect id="artboard" x="252.8" y="-113.60000000000001" width="63.2" height="22.400000000000002" stroke="rgb(149, 152, 154)" stroke-width="0.4" style="fill: rgb(255, 255, 255)"></rect><rect id="artboard" x="1235.2" y="-290.40000000000003" width="333.6" height="444.8" stroke="rgb(149, 152, 154)" stroke-width="0.4" style="fill: rgb(255, 255, 255)"></rect><text id="411d6332-4394-4f7a-88af-0408ef43faa1__0" x="668.6" y="252" font-size="0.4em" font-family="Georgia" font-style="normal" font-weight="normal" fill="rgb(44, 44, 44)">There are days which occur in this climate, </text><text id="411d6332-4394-4f7a-88af-0408ef43faa1__1" x="668.6" y="260" font-size="0.4em" font-family="Georgia" font-style="normal" font-weight="normal" fill="rgb(44, 44, 44)">at almost any season of the year, wherein </text><text id="411d6332-4394-4f7a-88af-0408ef43faa1__2" x="668.6" y="268" font-size="0.4em" font-family="Georgia" font-style="normal" font-weight="normal" fill="rgb(44, 44, 44)">the world reaches its perfection, when the </text><text id="411d6332-4394-4f7a-88af-0408ef43faa1__3" x="668.6" y="276" font-size="0.4em" font-family="Georgia" font-style="normal" font-weight="normal" fill="rgb(44, 44, 44)">air, the heavenly bodies, and the earth, </text><text id="411d6332-4394-4f7a-88af-0408ef43faa1__4" x="668.6" y="284" font-size="0.4em" font-family="Georgia" font-style="normal" font-weight="normal" fill="rgb(44, 44, 44)">make a harmony, as if nature would </text><text id="411d6332-4394-4f7a-88af-0408ef43faa1__5" x="668.6" y="292" font-size="0.4em" font-family="Georgia" font-style="normal" font-weight="normal" fill="rgb(44, 44, 44)">indulge her offspring; when, in these bleak </text><text id="411d6332-4394-4f7a-88af-0408ef43faa1__6" x="668.6" y="300" font-size="0.4em" font-family="Georgia" font-style="normal" font-weight="normal" fill="rgb(44, 44, 44)">upper sides of the planet, nothing is to </text><text id="411d6332-4394-4f7a-88af-0408ef43faa1__7" x="668.6" y="308" font-size="0.4em" font-family="Georgia" font-style="normal" font-weight="normal" fill="rgb(44, 44, 44)">desire that we have heard of the happiest </text><text id="411d6332-4394-4f7a-88af-0408ef43faa1__8" x="668.6" y="316" font-size="0.4em" font-family="Georgia" font-style="normal" font-weight="normal" fill="rgb(44, 44, 44)">latitudes, and we bask in the shining hours </text><text id="411d6332-4394-4f7a-88af-0408ef43faa1__9" x="668.6" y="324" font-size="0.4em" font-family="Georgia" font-style="normal" font-weight="normal" fill="rgb(44, 44, 44)">of Utah and Colorado; when everything… </text><text id="411d6332-4394-4f7a-88af-0408ef43faa1__10" x="668.6" y="332" font-size="0.4em" font-family="Georgia" font-style="normal" font-weight="normal" fill="rgb(44, 44, 44)">that has life gives sign of satisfaction, and </text><text id="411d6332-4394-4f7a-88af-0408ef43faa1__11" x="668.6" y="340" font-size="0.4em" font-family="Georgia" font-style="normal" font-weight="normal" fill="rgb(44, 44, 44)">the cattle that lie on the ground seem to </text><text id="411d6332-4394-4f7a-88af-0408ef43faa1__12" x="668.6" y="348" font-size="0.4em" font-family="Georgia" font-style="normal" font-weight="normal" fill="rgb(44, 44, 44)">have great and tranquil thoughts.</text><line id="865c229e-7fb8-449a-aa50-a1c37370f60b" x1="713" y1="236.60000000000002" x2="745" y2="236.60000000000002" stroke="rgb(12, 170, 220)" stroke-width="0.8" fill="transparent"></line><text id="7a9de6ca-5551-4b29-adac-a566847bdaee__0" x="692.79638671875" y="225.60000000000002" font-size="0.375em" font-family="Georgia" font-style="italic" font-weight="normal" fill="rgb(72, 72, 72)">Top destination of the year</text><text id="4c91f704-c1b0-4566-b268-7de1f29ae8d6__0" x="695.4927154541016" y="204.8" font-size="0.45em" font-family="Segoe UI" font-style="normal" font-weight="bold" fill="rgb(52, 52, 52)">FINDING BEAUTY</text><text id="4c91f704-c1b0-4566-b268-7de1f29ae8d6__1" x="692.7525665283204" y="214.4" font-size="0.45em" font-family="Segoe UI" font-style="normal" font-weight="bold" fill="rgb(52, 52, 52)">IN THE BADLANDS</text><rect id="787ddd8d-aa17-46dc-a397-84213be8051b" x="654" y="98" width="150" height="92" fill="url(#img1)"></rect><defs><pattern id="img1" preserveAspectRatio="xMidYMid slice" width="100%" height="100%" viewBox="0 0 750 497"><image xlink:href="/resources/1c1fc5558af504893061b883e964558f" x="0" y="0" width="750" height="497"></image></pattern></defs><path id="7bfe84dd-85f9-4f23-b6e4-a1afc1bcb8f7" transform="translate(708.4000000000001,178) scale(0.4 0.4)" d="M 3.5 0.5 C 5.156854152679443 0.5 6.5 1.843145847320557 6.5 3.5 C 6.5 5.156854152679443 5.156854152679443 6.5 3.5 6.5 C 1.843145847320557 6.5 0.5 5.156854152679443 0.5 3.5 C 0.5 1.843145847320557 1.843145847320557 0.5 3.5 0.5 Z" stroke="rgb(255, 255, 255)" stroke-width="0.4" fill="transparent"></path><path id="3f2645a5-1a24-4c51-a56a-4071585b60d3" transform="translate(714.8000000000001,178) scale(0.4 0.4)" d="M 3.5 0.5 C 5.156854152679443 0.5 6.5 1.843145847320557 6.5 3.5 C 6.5 5.156854152679443 5.156854152679443 6.5 3.5 6.5 C 1.843145847320557 6.5 0.5 5.156854152679443 0.5 3.5 C 0.5 1.843145847320557 1.843145847320557 0.5 3.5 0.5 Z" stroke="rgb(255, 255, 255)" stroke-width="0.4" fill="transparent"></path><path id="a2dcb1a4-bbe7-4cf7-9afd-80ce8b379be3" transform="translate(721.2,178) scale(0.4 0.4)" d="M 3.5 0.5 C 5.156854152679443 0.5 6.5 1.843145847320557 6.5 3.5 C 6.5 5.156854152679443 5.156854152679443 6.5 3.5 6.5 C 1.843145847320557 6.5 0.5 5.156854152679443 0.5 3.5 C 0.5 1.843145847320557 1.843145847320557 0.5 3.5 0.5 Z" stroke="rgb(255, 255, 255)" stroke-width="0.4" fill="transparent"></path><path id="5125f7ae-ed06-4fa5-a651-503a7270585c" transform="translate(727.6,178) scale(0.4 0.4)" d="M 3.5 0.5 C 5.156854152679443 0.5 6.5 1.843145847320557 6.5 3.5 C 6.5 5.156854152679443 5.156854152679443 6.5 3.5 6.5 C 1.843145847320557 6.5 0.5 5.156854152679443 0.5 3.5 C 0.5 1.843145847320557 1.843145847320557 0.5 3.5 0.5 Z" stroke="rgb(255, 255, 255)" stroke-width="0.4" fill="transparent"></path><path id="dcbd67c6-a83d-45b2-9d6e-19cc272e468e" transform="translate(734,178) scale(0.4 0.4)" d="M 3.5 0.5 C 5.156854152679443 0.5 6.5 1.843145847320557 6.5 3.5 C 6.5 5.156854152679443 5.156854152679443 6.5 3.5 6.5 C 1.843145847320557 6.5 0.5 5.156854152679443 0.5 3.5 C 0.5 1.843145847320557 1.843145847320557 0.5 3.5 0.5 Z" stroke="rgb(255, 255, 255)" stroke-width="0.4" fill="transparent"></path><path id="ddc69c06-cb1a-4633-bfe5-a1692ee5abc3" transform="translate(740.4000000000001,178) scale(0.4 0.4)" d="M 3.5 0.5 C 5.156854152679443 0.5 6.5 1.843145847320557 6.5 3.5 C 6.5 5.156854152679443 5.156854152679443 6.5 3.5 6.5 C 1.843145847320557 6.5 0.5 5.156854152679443 0.5 3.5 C 0.5 1.843145847320557 1.843145847320557 0.5 3.5 0.5 Z" stroke="rgb(255, 255, 255)" stroke-width="0.4" fill="transparent"></path><path id="a7891381-f5fb-4b23-bb9c-83c692d1887e" transform="translate(746.8000000000001,178) scale(0.4 0.4)" d="M 3.5 0.5 C 5.156854152679443 0.5 6.5 1.843145847320557 6.5 3.5 C 6.5 5.156854152679443 5.156854152679443 6.5 3.5 6.5 C 1.843145847320557 6.5 0.5 5.156854152679443 0.5 3.5 C 0.5 1.843145847320557 1.843145847320557 0.5 3.5 0.5 Z" stroke="rgb(255, 255, 255)" stroke-width="0.4" fill="transparent"></path><circle id="cd66db92-2da7-4b35-ab30-b4886abb31e9" cx="709.8000000000001" cy="179.4" r="1.4000000000000001" stroke="rgb(255, 255, 255)" stroke-width="0.4" style="fill: rgb(255, 255, 255)"></circle><path id="e2071aa3-9d50-4cec-bbf5-38764a9b0528" transform="translate(791.6,111.2) scale(0.4 0.4)" d="M 18 8.399999618530273 L 14.5 8.399999618530273 C 13.89999961853027 8.399999618530273 13.5 8.799999237060547 13.5 9.399999618530273 C 13.5 10 13.89999961853027 10.39999961853027 14.5 10.39999961853027 L 17 10.39999961853027 L 17 25.39999961853027 L 2 25.39999961853027 L 2 10.39999961853027 L 4.5 10.39999961853027 C 5.099999904632568 10.39999961853027 5.5 10 5.5 9.399999618530273 C 5.5 8.799999237060547 5.099999904632568 8.399999618530273 4.5 8.399999618530273 L 1 8.399999618530273 C 0.3999999761581421 8.399999618530273 0 8.799999237060547 0 9.399999618530273 L 0 26.39999961853027 C 0 27 0.4000000059604645 27.39999961853027 1 27.39999961853027 L 18 27.39999961853027 C 18.60000038146973 27.39999961853027 19 27 19 26.39999961853027 L 19 9.399999618530273 C 19 8.800000190734863 18.60000038146973 8.399999618530273 18 8.399999618530273 Z" style="fill: rgb(255, 255, 255)"></path><path id="070a019b-50d2-4ef2-aaad-bff8e03a7ff8" transform="translate(791.6,111.2) scale(0.4 0.4)" d="M 6.199999809265137 5.699999809265137 L 8.5 3.399999856948853 L 8.5 15.79999923706055 C 8.5 16.39999961853027 8.899999618530273 16.79999923706055 9.5 16.79999923706055 C 10.10000038146973 16.79999923706055 10.5 16.39999961853027 10.5 15.79999923706055 L 10.5 3.400000095367432 L 12.80000019073486 5.699999809265137 C 13 5.900000095367432 13.19999980926514 6 13.5 6 C 13.80000019073486 6 14 5.900000095367432 14.19999980926514 5.699999809265137 C 14.59999942779541 5.299999713897705 14.59999942779541 4.699999809265137 14.19999980926514 4.299999713897705 L 10.19999980926514 0.2999997138977051 C 9.800000190734863 -0.1000002920627594 9.199999809265137 -0.1000002920627594 8.800000190734863 0.2999997138977051 L 4.800000190734863 4.299999713897705 C 4.400000095367432 4.699999809265137 4.400000095367432 5.299999713897705 4.800000190734863 5.699999809265137 C 5.200000286102295 6.099999904632568 5.800000190734863 6.099999904632568 6.199999809265137 5.699999809265137 Z" style="fill: rgb(255, 255, 255)"></path><path id="9e657085-f9a3-4088-9e01-23ae7cedfb1b" transform="translate(699.6,-181.60002441406252) scale(0.4 0.4)" d="M 204.3553771972656 739.3668212890625 C 207.0109252929688 739.9168701171875 209.1165161132813 742.00732421875 209.6743621826172 744.64794921875 C 210.7821807861328 749.59912109375 206.6809692382813 753.89013671875 201.809814453125 753.22216796875 C 198.5964202880859 752.8919677734375 196.04296875 750.25927734375 195.60302734375 747.1785888671875 C 195.0451812744141 742.3375244140625 199.3663787841797 738.2667236328125 204.3553771972656 739.3668212890625 L 204.3553771972656 739.3668212890625 Z M 211.9999542236328 746.7384033203125 C 211.9999542236328 745.96826171875 211.9999542236328 745.1981201171875 211.7799682617188 744.4281005859375 C 211.1121368408203 740.797119140625 208.1187591552734 737.9364013671875 204.4653778076172 737.166259765625 C 198.5964202880859 736.0660400390625 193.3874206542969 740.5770263671875 193.3874206542969 746.2984619140625 C 193.3874206542969 748.3887939453125 194.0473785400391 750.25927734375 195.2730102539063 751.799560546875 C 193.3874206542969 753.662109375 190.7239837646484 756.1927490234375 190.5039825439453 756.4127197265625 C 190.1739959716797 756.8529052734375 189.6161804199219 757.8431396484375 190.3939971923828 758.61328125 C 191.1717987060547 759.3834228515625 192.1696166992188 758.8331298828125 192.6095886230469 758.5032958984375 L 197.3707733154297 753.772216796875 C 198.9263763427734 754.8724365234375 200.8119812011719 755.532470703125 202.9176025390625 755.532470703125 C 207.6787719726563 755.532470703125 211.7799682617188 751.6895751953125 211.9999542236328 746.7384033203125 L 211.9999542236328 746.7384033203125 Z" stroke="rgba(0, 0, 0, 0)" stroke-width="0.4" style="fill: rgb(255, 255, 255)"></path><path id="2eca9925-e93c-4849-9282-1ebd59c1ce42" transform="translate(686.7939453125,82.4) scale(0.4 0.4) rotate(90)" d="M 97.46916961669922 59.76226043701172 C 98.18206787109375 59.06143569946289 98.18206787109375 57.91353225708008 97.46916961669922 57.20061874389648 C 96.75624084472656 56.49979782104492 95.60836029052734 56.49979782104492 94.90752410888672 57.20061874389648 L 88.50341796875 63.60472106933594 L 82.08724975585938 57.20061874389648 C 81.38643646240234 56.49979782104492 80.238525390625 56.49979782104492 79.52561187744141 57.20061874389648 C 78.82479095458984 57.91353225708008 78.82479095458984 59.06143569946289 79.52561187744141 59.76226043701172 L 87.22261047363281 67.45925903320313 C 87.92342376708984 68.16007995605469 89.07134246826172 68.16007995605469 89.78425598144531 67.45925903320313 L 97.46916961669922 59.76226043701172 Z" stroke="rgba(0, 0, 0, 0)" stroke-width="0.4" style="fill: rgb(255, 255, 255)"></path><path id="50d38d8e-1632-436c-a6bd-18f8e7c846d3" transform="translate(791.2,100.80000000000001) scale(0.4 0.4)" d="M 1.502458333969116 1.026315808296204 L 1.502458333969116 1.026315808296204 C 0.9472132325172424 1.026315808296204 0.5 1.495540976524353 0.5 2.079011678695679 L 0.5 8.920988082885742 C 0.5 9.501893043518066 0.9490637183189392 9.973684310913086 1.502458333969116 9.973684310913086 L 20.9975414276123 9.973684310913086 C 21.55278587341309 9.973684310913086 22 9.504459381103516 22 8.920988082885742 L 22 2.079011678695679 C 22 1.498106837272644 21.55093574523926 1.026315808296204 20.9975414276123 1.026315808296204 L 1.502458333969116 1.026315808296204 Z M 1.502458333969116 0.5 L 1.502458333969116 0.5 L 20.9975414276123 0.5 C 21.82662010192871 0.5 22.5 1.206947565078735 22.5 2.079011678695679 L 22.5 8.920988082885742 C 22.5 9.796819686889648 21.82732582092285 10.5 20.9975414276123 10.5 L 1.502458333969116 10.5 C 0.6733803153038025 10.5 0 9.793052673339844 0 8.920988082885742 L 0 2.079011678695679 C 0 1.203180551528931 0.6726735234260559 0.5 1.502458333969116 0.5 L 1.502458333969116 0.5 Z" stroke="rgba(0, 0, 0, 0)" stroke-width="0.4" style="fill: rgb(255, 255, 255)"></path><rect id="b56428b2-b7f0-44b4-902d-dab996917456" x="791.6" y="101.4" width="3.6" height="3.2" stroke="rgba(0, 0, 0, 0)" stroke-width="0.4" style="fill: rgb(255, 255, 255)"></rect><path id="ae82948c-ac22-4c1d-b168-4ae2ad4781df" transform="translate(791.2,100.80000000000001) scale(0.4 0.4)" d="M 24.5 5.732277870178223 C 24.5 6.613896369934082 23.84807205200195 7.343249320983887 23 7.464555740356445 L 23 4 C 23.84807205200195 4.121306419372559 24.5 4.850659370422363 24.5 5.732277870178223 Z" stroke="rgba(0, 0, 0, 0)" stroke-width="0.4" style="fill: rgb(255, 255, 255)"></path><text id="cf10b194-7608-4052-ab66-83058fa61dc7__0" x="780" y="104.60000000000001" font-size="0.3em" font-family="Segoe UI" font-style="normal" font-weight="normal" fill="rgb(243, 250, 255)">42%</text><path id="6a73ce6b-131a-4d5f-a3e8-91df8e3572e4" transform="translate(654.4000000000001,99.2) scale(0.4 0.4)" d="M 306.4277648925781 14.36894607543945 L 306.4277648925781 10.81073188781738 L 308.1397705078125 12.67517852783203 L 306.4277648925781 14.36894607543945 L 306.4277648925781 14.36894607543945 L 306.4277648925781 14.36894607543945 L 306.4277648925781 14.36894607543945 Z M 308.2183532714844 7.346535682678223 L 306.4277648925781 9.147821426391602 L 306.4277648925781 5.735214233398438 L 308.2183532714844 7.346535682678223 L 308.2183532714844 7.346535682678223 L 308.2183532714844 7.346535682678223 L 308.2183532714844 7.346535682678223 Z M 306.8578796386719 10.01085662841797 L 309.5148315429688 7.346535682678223 L 305.5505981445313 3.5 L 305.4569396972656 3.5 L 305.4569396972656 8.849857330322266 L 302.76611328125 6.028839111328125 L 302 6.829196453094482 L 305.2376403808594 10.01085662841797 L 302 13.19203567504883 L 302.76611328125 13.99239253997803 L 305.4569396972656 11.1713752746582 L 305.4569396972656 16.52075004577637 L 305.6282348632813 16.52075004577637 L 309.5534057617188 12.66457176208496 L 306.8578796386719 10.01085662841797 L 306.8578796386719 10.01085662841797 Z" stroke="rgba(0, 0, 0, 0)" stroke-width="0.4" style="fill: rgb(255, 255, 255)"></path><text id="f598b24c-b6bd-4206-b023-f8b3b75f8382__0" x="719.6" y="105" font-size="0.3em" font-family="Segoe UI" font-style="normal" font-weight="normal" fill="rgb(243, 250, 255)">9:41 AM</text><path id="4682afd3-a453-4499-a140-befdcc798c91" transform="translate(654.6,98.80000000000001) scale(0.4 0.4)" d="M 90.49575042724609 7.020876884460449 C 92.43552398681641 7.020876884460449 94.20336151123047 7.735452175140381 95.55885314941406 8.907177925109863 L 96.5 7.868109703063965 C 94.89459991455078 6.474465847015381 92.79788970947266 5.5 90.49575042724609 5.5 C 88.19711303710938 5.5 86.10340118408203 6.47150707244873 84.5 7.86071252822876 L 85.43914794921875 8.901260375976563 C 86.79364013671875 7.732986450195313 88.55847930908203 7.020876884460449 90.49575042724609 7.020876884460449 L 90.49575042724609 7.020876884460449 Z M 90.49575042724609 10.02021884918213 C 91.65831756591797 10.02021884918213 92.72042083740234 10.44235610961914 93.53961181640625 11.13769817352295 L 94.53524017333984 10.03797245025635 C 93.45164489746094 9.107890129089355 92.04217529296875 8.50032901763916 90.49575042724609 8.50032901763916 C 88.95233154296875 8.50032901763916 87.54386138916016 9.106410980224609 86.46126556396484 10.03353404998779 L 87.45539093017578 11.13473987579346 C 88.27408599853516 10.44087696075439 89.33468627929688 10.02021884918213 90.49575042724609 10.02021884918213 L 90.49575042724609 10.02021884918213 Z M 92.54347991943359 12.23742485046387 C 91.98918914794922 11.77731513977051 91.27545928955078 11.45873928070068 90.49525451660156 11.45873928070068 C 89.71654510498047 11.45873928070068 89.00381469726563 11.77682209014893 88.44951629638672 12.23495864868164 L 90.49525451660156 14.5 L 92.54347991943359 12.23742485046387 L 92.54347991943359 12.23742485046387 Z" stroke="rgba(0, 0, 0, 0)" stroke-width="0.4" style="fill: rgb(255, 255, 255)"></path><text id="a6ad40b8-a569-4bbd-a41b-913233f696f4__0" x="672" y="104.60000000000001" font-size="0.3em" font-family="Segoe UI" font-style="normal" font-weight="normal" fill="rgb(243, 250, 255)">Carrier</text><circle id="7076a0d3-adf4-4aee-921c-9c5472e363dc" cx="658.3000000000001" cy="103.3" r="1.1" stroke="rgba(0, 0, 0, 0)" stroke-width="0.4" style="fill: rgb(255, 255, 255)"></circle><circle id="8650b0a4-a9f9-4b8f-9340-82ddead175b3" cx="661.1" cy="103.3" r="1.1" stroke="rgba(0, 0, 0, 0)" stroke-width="0.4" style="fill: rgb(255, 255, 255)"></circle><circle id="431b191b-3392-420f-8e8e-1fbc4e919d93" cx="663.9000000000001" cy="103.3" r="1.1" stroke="rgba(0, 0, 0, 0)" stroke-width="0.4" style="fill: rgb(255, 255, 255)"></circle><path id="018b5244-1aa0-4861-9500-c6f7f1c4bca0" transform="translate(657.2,102.2) scale(0.4 0.4)" d="M 23.75 5 L 23.75 5 C 24.99264144897461 5 26 3.992640733718872 26 2.75 C 26 1.507359266281128 24.99264144897461 0.5 23.75 0.5 C 22.50735855102539 0.5 21.5 1.507359266281128 21.5 2.75 C 21.5 3.992640733718872 22.50735855102539 5 23.75 5 L 23.75 5 Z M 23.75 5.5 L 23.75 5.5 C 22.23121643066406 5.5 21 4.268783092498779 21 2.75 C 21 1.231216907501221 22.23121643066406 0 23.75 0 C 25.26878356933594 0 26.5 1.231216907501221 26.5 2.75 C 26.5 4.268783092498779 25.26878356933594 5.5 23.75 5.5 L 23.75 5.5 Z" stroke="rgba(0, 0, 0, 0)" stroke-width="0.4" style="fill: rgb(255, 255, 255)"></path><path id="fcbd44c0-be1a-4a1d-9efe-df2cad83230c" transform="translate(657.2,102.2) scale(0.4 0.4)" d="M 30.75 5 L 30.75 5 C 31.99264144897461 5 33 3.992640733718872 33 2.75 C 33 1.507359266281128 31.99264144897461 0.5 30.75 0.5 C 29.50735855102539 0.5 28.5 1.507359266281128 28.5 2.75 C 28.5 3.992640733718872 29.50735855102539 5 30.75 5 L 30.75 5 Z M 30.75 5.5 L 30.75 5.5 C 29.23121643066406 5.5 28 4.268783092498779 28 2.75 C 28 1.231216907501221 29.23121643066406 0 30.75 0 C 32.26878356933594 0 33.5 1.231216907501221 33.5 2.75 C 33.5 4.268783092498779 32.26878356933594 5.5 30.75 5.5 L 30.75 5.5 Z" stroke="rgba(0, 0, 0, 0)" stroke-width="0.4" style="fill: rgb(255, 255, 255)"></path><rect id="bb0629d0-f137-44d5-83fc-7d3ff76d3eec" x="517.2" y="-288" width="150" height="266.8" stroke="rgb(96, 97, 98)" stroke-width="0.4" fill="transparent"></rect><line id="e17b6ef2-90a6-4ef7-8929-33ef54a12108" x1="589.2640533447266" y1="-253.7077522277832" x2="611.6696029663086" y2="-208.89654006958008" stroke="rgb(12, 170, 220)" stroke-width="2.4000000000000004" fill="transparent"></line><line id="17423da7-eb48-40c0-a0c8-eea45f04866d" x1="573.7161193847656" y1="-208.89654006958008" x2="596.1216690063477" y2="-253.7077522277832" stroke="rgb(12, 170, 220)" stroke-width="2.4000000000000004" fill="transparent"></line><line id="5ffe69b4-4898-495d-958e-d1ac59cccec3" x1="616.4926307678223" y1="-208.89654541015625" x2="567.9137184143067" y2="-208.89654541015625" stroke="rgb(12, 170, 220)" stroke-width="2.4000000000000004" fill="transparent"></line><path id="bec03f8e-b407-4415-b68d-2dfe228b53bb" transform="translate(584.9188995361328,-224.20831909179688) scale(0.4 0.4)" d="M 19.09080696105957 0 L 38.18161392211914 38.18171310424805 L 0 38.18171310424805 L 19.09080696105957 0 Z" style="fill: rgb(12, 170, 220)"></path><path id="79aeebe1-06b0-432b-b686-a9af7970d926" transform="translate(619.8593237280846,-244.29329104423525) scale(0.4 0.4)" d="M 0.4000000059604645 10.15369129180908 L 10.39484119415283 0.699999988079071 L 20.38967704772949 10.15369129180908" stroke="rgb(12, 170, 220)" stroke-width="2" fill="transparent"></path><path id="6ac92d3e-d485-453b-8f34-2a6a3a5f0283" transform="translate(619.8593237280846,-239.77384147644045) scale(0.4 0.4)" d="M 0.4000000059604645 10.15369129180908 L 10.39484119415283 0.699999988079071 L 20.38967704772949 10.15369129180908" stroke="rgb(12, 170, 220)" stroke-width="2" fill="transparent"></path><path id="fec0969f-237f-495c-bf2d-775fba773e32" transform="translate(619.8593237280846,-235.25444488525392) scale(0.4 0.4)" d="M 0.4000000059604645 10.15369129180908 L 10.39484119415283 0.699999988079071 L 20.38967704772949 10.15369129180908" stroke="rgb(12, 170, 220)" stroke-width="2" fill="transparent"></path><path id="1af2d582-9bb5-4b67-8282-b9e379188f47" transform="translate(619.8593237280846,-230.73504791259768) scale(0.4 0.4)" d="M 0.4000000059604645 10.15369129180908 L 10.39484119415283 0.699999988079071 L 20.38967704772949 10.15369129180908" stroke="rgb(12, 170, 220)" stroke-width="2" fill="transparent"></path><path id="d567ccaa-cdb7-4fa6-b7f1-655002c65ada" transform="translate(619.8593237280846,-226.2155990600586) scale(0.4 0.4)" d="M 0.4000000059604645 10.15369129180908 L 10.39484119415283 0.699999988079071 L 20.38967704772949 10.15369129180908" stroke="rgb(12, 170, 220)" stroke-width="2" fill="transparent"></path><line id="06a33eda-1335-4540-bdf0-c0ce0e8b4018" x1="624.191068649292" y1="-244.1001922607422" x2="624.191068649292" y2="-216.37531127929688" stroke="rgb(12, 170, 220)" stroke-width="2" fill="transparent"></line><path id="9e8807b4-5bb4-4192-a07b-821c7cb560e6" transform="translate(609.082266843319,-244.29329104423525) scale(0.4 0.4)" d="M 0.4000000059604645 10.15369129180908 L 10.39484119415283 0.699999988079071 L 20.38967704772949 10.15369129180908" stroke="rgb(12, 170, 220)" stroke-width="2" fill="transparent"></path><path id="d67a7191-75e8-463c-9a51-9ce571417309" transform="translate(609.082266843319,-239.77386779785158) scale(0.4 0.4)" d="M 0.4000000059604645 10.15369129180908 L 10.39484119415283 0.699999988079071 L 20.38967704772949 10.15369129180908" stroke="rgb(12, 170, 220)" stroke-width="2" fill="transparent"></path><path id="63dd577c-70e1-4534-9a9c-2dc0e78c01e9" transform="translate(609.082266843319,-235.25444488525392) scale(0.4 0.4)" d="M 0.4000000059604645 10.15369129180908 L 10.39484119415283 0.699999988079071 L 20.38967704772949 10.15369129180908" stroke="rgb(12, 170, 220)" stroke-width="2" fill="transparent"></path><path id="8586a13f-a17b-42fb-ab68-d241ddb95670" transform="translate(609.082266843319,-230.73504791259768) scale(0.4 0.4)" d="M 0.4000000059604645 10.15369129180908 L 10.39484119415283 0.699999988079071 L 20.38967704772949 10.15369129180908" stroke="rgb(12, 170, 220)" stroke-width="2" fill="transparent"></path><path id="2ef1e70a-a52c-44f1-9974-6cf3e4b126cb" transform="translate(609.082266843319,-226.21562500000002) scale(0.4 0.4)" d="M 0.4000000059604645 10.15369129180908 L 10.39484119415283 0.699999988079071 L 20.38967704772949 10.15369129180908" stroke="rgb(12, 170, 220)" stroke-width="2" fill="transparent"></path><line id="28ac31a5-be72-4d05-9c52-2e0c7c1b76f4" x1="613.414024734497" y1="-244.1001922607422" x2="613.414024734497" y2="-216.37531127929688" stroke="rgb(12, 170, 220)" stroke-width="2" fill="transparent"></line><path id="8b4a5ccf-7209-4d65-98fa-05c3e73d86d8" transform="translate(567.0170416235924,-244.29329104423525) scale(0.4 0.4)" d="M 0.4000000059604645 10.15369129180908 L 10.39484119415283 0.699999988079071 L 20.38967704772949 10.15369129180908" stroke="rgb(12, 170, 220)" stroke-width="2" fill="transparent"></path><path id="925ad8ed-4971-4c9e-add5-bea257a71b96" transform="translate(567.0170416235924,-239.77384147644045) scale(0.4 0.4)" d="M 0.4000000059604645 10.15369129180908 L 10.39484119415283 0.699999988079071 L 20.38967704772949 10.15369129180908" stroke="rgb(12, 170, 220)" stroke-width="2" fill="transparent"></path><path id="8c4df2c1-d862-4274-8fdc-ed5551c5d962" transform="translate(567.0170416235924,-235.25444488525392) scale(0.4 0.4)" d="M 0.4000000059604645 10.15369129180908 L 10.39484119415283 0.699999988079071 L 20.38967704772949 10.15369129180908" stroke="rgb(12, 170, 220)" stroke-width="2" fill="transparent"></path><path id="39c2ae3d-5fae-48c7-8ec2-4add3a665e5d" transform="translate(567.0170416235924,-230.73504791259768) scale(0.4 0.4)" d="M 0.4000000059604645 10.15369129180908 L 10.39484119415283 0.699999988079071 L 20.38967704772949 10.15369129180908" stroke="rgb(12, 170, 220)" stroke-width="2" fill="transparent"></path><path id="2bc6cb71-0792-4d6c-87dd-b5eb33d0ea07" transform="translate(567.0170416235924,-226.2155990600586) scale(0.4 0.4)" d="M 0.4000000059604645 10.15369129180908 L 10.39484119415283 0.699999988079071 L 20.38967704772949 10.15369129180908" stroke="rgb(12, 170, 220)" stroke-width="2" fill="transparent"></path><line id="fb74f58f-dab7-4328-b74d-909c0a151fd9" x1="571.3487995147706" y1="-244.1001922607422" x2="571.3487995147706" y2="-216.37531127929688" stroke="rgb(12, 170, 220)" stroke-width="2" fill="transparent"></line><path id="73201eb1-d773-4249-98b2-62783a4d36a7" transform="translate(556.2399999976159,-244.2932846546173) scale(0.4 0.4)" d="M 0.4000000059604645 10.15369129180908 L 10.39484119415283 0.699999988079071 L 20.38967704772949 10.15369129180908" stroke="rgb(12, 170, 220)" stroke-width="2" fill="transparent"></path><path id="ab3304f9-478b-44e5-96fe-b4695d23ac49" transform="translate(556.2399999976159,-239.77386741638185) scale(0.4 0.4)" d="M 0.4000000059604645 10.15369129180908 L 10.39484119415283 0.699999988079071 L 20.38967704772949 10.15369129180908" stroke="rgb(12, 170, 220)" stroke-width="2" fill="transparent"></path><path id="51f41e62-00e5-4d27-bc46-07a9bb525fc0" transform="translate(556.2399999976159,-235.25445251464845) scale(0.4 0.4)" d="M 0.4000000059604645 10.15369129180908 L 10.39484119415283 0.699999988079071 L 20.38967704772949 10.15369129180908" stroke="rgb(12, 170, 220)" stroke-width="2" fill="transparent"></path><path id="7fb0bef7-c25e-4188-9d2e-5c4aaa6b9b16" transform="translate(556.2399999976159,-230.73503570556642) scale(0.4 0.4)" d="M 0.4000000059604645 10.15369129180908 L 10.39484119415283 0.699999988079071 L 20.38967704772949 10.15369129180908" stroke="rgb(12, 170, 220)" stroke-width="2" fill="transparent"></path><path id="a13a4771-785e-4abe-97c0-12ee94197af6" transform="translate(556.2399999976159,-226.2156204223633) scale(0.4 0.4)" d="M 0.4000000059604645 10.15369129180908 L 10.39484119415283 0.699999988079071 L 20.38967704772949 10.15369129180908" stroke="rgb(12, 170, 220)" stroke-width="2" fill="transparent"></path><line id="7357dffe-ba52-4858-bfef-0207d108a725" x1="560.571756362915" y1="-244.1001922607422" x2="560.571756362915" y2="-216.37531127929688" stroke="rgb(0, 169, 222)" stroke-width="2" fill="transparent"></line><path id="6c318ca8-aa64-4bc5-b368-fe67d8110d35" transform="translate(589.2411621093751,-202.85443115234375) scale(0.4 0.4)" d="M 8.039325714111328 0.375919371843338 C 7.6047682762146 -0.05863984301686287 6.952930927276611 -0.05863984301686287 6.735651016235352 0.375919371843338 C 4.128302574157715 4.504231929779053 0 10.58806133270264 0 14.49909400939941 C 0 18.84468841552734 3.476465463638306 22.10388374328613 7.6047682762146 22.10388374328613 C 11.95034885406494 22.10388374328613 15.2095365524292 18.62740516662598 15.2095365524292 14.49909400939941 C 14.99225807189941 10.80534076690674 10.86395359039307 4.504231929779053 8.039325714111328 0.375919371843338 Z M 7.387489318847656 17.97557067871094 C 5.649256229400635 17.97557067871094 4.128302574157715 16.6718921661377 4.128302574157715 14.71637535095215 C 4.128302574157715 12.76085662841797 5.431976795196533 11.45717906951904 7.387489318847656 11.45717906951904 C 9.343000411987305 11.45717906951904 10.64667320251465 12.97813892364502 10.64667320251465 14.71637535095215 C 10.64667320251465 16.23733139038086 9.125720977783203 17.7582893371582 7.387489318847656 17.97557067871094 Z" style="fill: rgb(12, 170, 220)"></path><line id="88a06f0d-8dfe-4cea-b388-759035b6be6a" x1="586.4714263916015" y1="-193.21712455749514" x2="598.1061416625977" y2="-188.56354217529298" stroke="rgb(12, 170, 220)" stroke-width="2.4000000000000004" fill="transparent"></line><line id="84613b59-efe0-4995-8500-9f957387f7cc" x1="598.0475715637207" y1="-193.3585346221924" x2="609.6822952270508" y2="-188.7049732208252" stroke="rgb(12, 170, 220)" stroke-width="2.4000000000000004" fill="transparent"></line><text id="ac3561b5-1db8-47e6-a463-5b94d42b2f71__0" x="574.977571105957" y="-177.7320495605469" font-size="0.3em" font-family="Segoe UI" font-style="normal" font-weight="bold" fill="rgb(12, 170, 220)">CAMPVIBES</text><path id="81133147-8a86-4b53-bd8f-c37e64e6beab" transform="translate(583.8640808105469,-168.39993896484376) scale(0.4 0.4)" d="M 0 0 L 42.58669662475586 0" stroke="rgb(12, 170, 220)" stroke-width="1.2000000000000002" fill="transparent"></path><rect id="97d41fb4-57ed-4ff7-bc6b-428cfbd6881a" x="305.2" y="308" width="63.2" height="63.2" fill="transparent"></rect><text id="df4664b1-d35f-41c5-b027-61e154446725__0" x="329.9650390625" y="364.40000000000003" font-size="0.375em" font-family="Segoe UI" font-style="normal" font-weight="normal" fill="rgb(0, 169, 222)">Tents</text><line id="613391f6-bc70-40e1-b5af-f988c8e27a14" x1="334.2218688964844" y1="316.8" x2="350.8257766723633" y2="349.9999908447266" stroke="rgb(12, 170, 220)" stroke-width="1.2000000000000002" fill="transparent"></line><line id="a76dd185-266b-4738-91c4-c3711f1fff88" x1="322.69990844726567" y1="349.9999908447266" x2="339.30381622314457" y2="316.8" stroke="rgb(12, 170, 220)" stroke-width="1.2000000000000002" fill="transparent"></line><line id="ce367023-c9c6-49cb-9b43-7d189e031b34" x1="354.3999359130859" y1="350" x2="318.3999328613281" y2="350" stroke="rgb(12, 170, 220)" stroke-width="1.2000000000000002" fill="transparent"></line><path id="3101f285-f42a-4bc4-b74b-0ea818f2e301" transform="translate(331.0018615722656,338.65568847656255) scale(0.4 0.4)" d="M 14.1474781036377 0 L 28.29495620727539 28.28829002380371 L 0 28.28829002380371 L 14.1474781036377 0 Z" stroke="rgb(12, 170, 220)" stroke-width="0.4" style="fill: rgb(12, 170, 220)"></path><text id="24fa7947-6c79-44f1-b350-b02c60219e38__0" x="368" y="332.40000000000003" font-size="0.4em" font-family="Georgia" font-style="normal" font-weight="normal" fill="rgb(44, 44, 44)">Too heavy? Too small? </text><text id="24fa7947-6c79-44f1-b350-b02c60219e38__1" x="368" y="340.00000000000006" font-size="0.4em" font-family="Georgia" font-style="normal" font-weight="normal" fill="rgb(44, 44, 44)">Too much? Relax. This </text><text id="24fa7947-6c79-44f1-b350-b02c60219e38__2" x="368" y="347.6" font-size="0.4em" font-family="Georgia" font-style="normal" font-weight="normal" fill="rgb(44, 44, 44)">tent is Just Right.</text><rect id="1afa982f-f556-45bc-bdc8-2fdd24630763" x="305.2" y="239.20000000000002" width="63.2" height="63.2" fill="transparent"></rect><text id="72450eb0-c939-45d3-96b9-e9b55e40f628__0" x="322.90595703125" y="295.6" font-size="0.375em" font-family="Segoe UI" font-style="normal" font-weight="normal" fill="rgb(0, 169, 222)">Outerwear</text><rect id="a2b76db2-1d2f-4042-9581-4493595aac82" x="332.8493286132813" y="248.10015869140625" width="8.026461791992189" height="6.979524993896485" stroke="rgb(12, 170, 220)" stroke-width="0.4" style="fill: rgb(12, 170, 220)"></rect><line id="770a1059-4a9c-4b86-a057-d7627bd8a6d0" x1="336.86256103515626" y1="254.90518798828126" x2="336.86256103515626" y2="284.9171447753906" stroke="rgb(12, 170, 220)" stroke-width="0.8" fill="transparent"></line><path id="3f875a69-5380-451e-96a9-39e24481d4bf" transform="translate(344.88901367187503,275.14581298828125) scale(0.4 0.4)" d="M 0 0 L 0 16.57637214660645" stroke="rgb(12, 170, 220)" stroke-width="0.8" fill="transparent"></path><path id="77e6b431-d5eb-4c2e-b440-dc8b5e8fcab4" transform="translate(328.8360961914063,275.14581298828125) scale(0.4 0.4)" d="M 0 0 L 0 16.57637214660645" stroke="rgb(12, 170, 220)" stroke-width="0.8" fill="transparent"></path><text id="9da5ecaa-113f-4cc7-8d0d-33c50bf492b4__0" x="368" y="264.40000000000003" font-size="0.4em" font-family="Georgia" font-style="normal" font-weight="normal" fill="rgb(44, 44, 44)">Warm, dry, cool, and </text><text id="9da5ecaa-113f-4cc7-8d0d-33c50bf492b4__1" x="368" y="272.00000000000006" font-size="0.4em" font-family="Georgia" font-style="normal" font-weight="normal" fill="rgb(44, 44, 44)">comfortable: Our favorite </text><text id="9da5ecaa-113f-4cc7-8d0d-33c50bf492b4__2" x="368" y="279.6" font-size="0.4em" font-family="Georgia" font-style="normal" font-weight="normal" fill="rgb(44, 44, 44)">all-weather outer shell.</text><line id="30fe84b5-50f2-41ff-8cf7-852144267377" x1="359" y1="229" x2="391" y2="229" stroke="rgb(12, 170, 220)" stroke-width="0.8" fill="transparent"></line><text id="4b22cabe-babf-4b44-ae8e-55c567a57f31__0" x="338.59130859375" y="218.8" font-size="0.375em" font-family="Georgia" font-style="italic" font-weight="normal" fill="rgb(72, 72, 72)">Your own personal sherpa.</text><text id="89f4b261-0003-4549-ad94-9ff50a6185c7__0" x="352.8093658447266" y="207.20000000000002" font-size="0.45em" font-family="Segoe UI" font-style="normal" font-weight="normal" fill="rgb(52, 52, 52)">GEAR GUIDE</text><rect id="4120cc75-a097-42a7-914e-f18407d599fd" x="296.40000000000003" y="98" width="153.60000000000002" height="92" fill="url(#img2)"></rect><defs><pattern id="img2" preserveAspectRatio="xMidYMid slice" width="100%" height="100%" viewBox="0 0 810 508"><image xlink:href="/resources/c3f42ed89af66e3fbee2ca6025985939" x="0" y="0" width="810" height="508"></image></pattern></defs><path id="7f949f0c-bfde-4376-ad6a-8def39f0f261" transform="translate(437.6,111.04000244140626) scale(0.4 0.4)" d="M 18 8.399999618530273 L 14.5 8.399999618530273 C 13.89999961853027 8.399999618530273 13.5 8.799999237060547 13.5 9.399999618530273 C 13.5 10 13.89999961853027 10.39999961853027 14.5 10.39999961853027 L 17 10.39999961853027 L 17 25.39999961853027 L 2 25.39999961853027 L 2 10.39999961853027 L 4.5 10.39999961853027 C 5.099999904632568 10.39999961853027 5.5 10 5.5 9.399999618530273 C 5.5 8.799999237060547 5.099999904632568 8.399999618530273 4.5 8.399999618530273 L 1 8.399999618530273 C 0.3999999761581421 8.399999618530273 0 8.799999237060547 0 9.399999618530273 L 0 26.39999961853027 C 0 27 0.4000000059604645 27.39999961853027 1 27.39999961853027 L 18 27.39999961853027 C 18.60000038146973 27.39999961853027 19 27 19 26.39999961853027 L 19 9.399999618530273 C 19 8.800000190734863 18.60000038146973 8.399999618530273 18 8.399999618530273 Z" style="fill: rgb(255, 255, 255)"></path><path id="76294a82-a804-4db9-a030-499fdaa62533" transform="translate(437.6,111.2) scale(0.4 0.4)" d="M 6.199999809265137 5.699999809265137 L 8.5 3.399999856948853 L 8.5 15.79999923706055 C 8.5 16.39999961853027 8.899999618530273 16.79999923706055 9.5 16.79999923706055 C 10.10000038146973 16.79999923706055 10.5 16.39999961853027 10.5 15.79999923706055 L 10.5 3.400000095367432 L 12.80000019073486 5.699999809265137 C 13 5.900000095367432 13.19999980926514 6 13.5 6 C 13.80000019073486 6 14 5.900000095367432 14.19999980926514 5.699999809265137 C 14.59999942779541 5.299999713897705 14.59999942779541 4.699999809265137 14.19999980926514 4.299999713897705 L 10.19999980926514 0.2999997138977051 C 9.800000190734863 -0.1000002920627594 9.199999809265137 -0.1000002920627594 8.800000190734863 0.2999997138977051 L 4.800000190734863 4.299999713897705 C 4.400000095367432 4.699999809265137 4.400000095367432 5.299999713897705 4.800000190734863 5.699999809265137 C 5.200000286102295 6.099999904632568 5.800000190734863 6.099999904632568 6.199999809265137 5.699999809265137 Z" style="fill: rgb(255, 255, 255)"></path><path id="56337759-a3ea-46ab-b763-e4aa632c5ad2" transform="translate(345.6,-181.60002441406252) scale(0.4 0.4)" d="M 204.3553771972656 739.3668212890625 C 207.0109252929688 739.9168701171875 209.1165161132813 742.00732421875 209.6743621826172 744.64794921875 C 210.7821807861328 749.59912109375 206.6809692382813 753.89013671875 201.809814453125 753.22216796875 C 198.5964202880859 752.8919677734375 196.04296875 750.25927734375 195.60302734375 747.1785888671875 C 195.0451812744141 742.3375244140625 199.3663787841797 738.2667236328125 204.3553771972656 739.3668212890625 L 204.3553771972656 739.3668212890625 Z M 211.9999542236328 746.7384033203125 C 211.9999542236328 745.96826171875 211.9999542236328 745.1981201171875 211.7799682617188 744.4281005859375 C 211.1121368408203 740.797119140625 208.1187591552734 737.9364013671875 204.4653778076172 737.166259765625 C 198.5964202880859 736.0660400390625 193.3874206542969 740.5770263671875 193.3874206542969 746.2984619140625 C 193.3874206542969 748.3887939453125 194.0473785400391 750.25927734375 195.2730102539063 751.799560546875 C 193.3874206542969 753.662109375 190.7239837646484 756.1927490234375 190.5039825439453 756.4127197265625 C 190.1739959716797 756.8529052734375 189.6161804199219 757.8431396484375 190.3939971923828 758.61328125 C 191.1717987060547 759.3834228515625 192.1696166992188 758.8331298828125 192.6095886230469 758.5032958984375 L 197.3707733154297 753.772216796875 C 198.9263763427734 754.8724365234375 200.8119812011719 755.532470703125 202.9176025390625 755.532470703125 C 207.6787719726563 755.532470703125 211.7799682617188 751.6895751953125 211.9999542236328 746.7384033203125 L 211.9999542236328 746.7384033203125 Z" stroke="rgba(0, 0, 0, 0)" stroke-width="0.4" style="fill: rgb(255, 255, 255)"></path><path id="a953f59f-f088-43c9-8252-cb261388420a" transform="translate(331.99394531250005,81.60000000000001) scale(0.4 0.4) rotate(90)" d="M 97.46916961669922 59.76226043701172 C 98.18206787109375 59.06143569946289 98.18206787109375 57.91353225708008 97.46916961669922 57.20061874389648 C 96.75624084472656 56.49979782104492 95.60836029052734 56.49979782104492 94.90752410888672 57.20061874389648 L 88.50341796875 63.60472106933594 L 82.08724975585938 57.20061874389648 C 81.38643646240234 56.49979782104492 80.238525390625 56.49979782104492 79.52561187744141 57.20061874389648 C 78.82479095458984 57.91353225708008 78.82479095458984 59.06143569946289 79.52561187744141 59.76226043701172 L 87.22261047363281 67.45925903320313 C 87.92342376708984 68.16007995605469 89.07134246826172 68.16007995605469 89.78425598144531 67.45925903320313 L 97.46916961669922 59.76226043701172 Z" stroke="rgba(0, 0, 0, 0)" stroke-width="0.4" style="fill: rgb(255, 255, 255)"></path><path id="cf18f563-f7f0-49e1-b22f-e3e8d5098a22" transform="translate(437.20000000000005,100.80000000000001) scale(0.4 0.4)" d="M 1.502458333969116 1.026315808296204 L 1.502458333969116 1.026315808296204 C 0.9472132325172424 1.026315808296204 0.5 1.495540976524353 0.5 2.079011678695679 L 0.5 8.920988082885742 C 0.5 9.501893043518066 0.9490637183189392 9.973684310913086 1.502458333969116 9.973684310913086 L 20.9975414276123 9.973684310913086 C 21.55278587341309 9.973684310913086 22 9.504459381103516 22 8.920988082885742 L 22 2.079011678695679 C 22 1.498106837272644 21.55093574523926 1.026315808296204 20.9975414276123 1.026315808296204 L 1.502458333969116 1.026315808296204 Z M 1.502458333969116 0.5 L 1.502458333969116 0.5 L 20.9975414276123 0.5 C 21.82662010192871 0.5 22.5 1.206947565078735 22.5 2.079011678695679 L 22.5 8.920988082885742 C 22.5 9.796819686889648 21.82732582092285 10.5 20.9975414276123 10.5 L 1.502458333969116 10.5 C 0.6733803153038025 10.5 0 9.793052673339844 0 8.920988082885742 L 0 2.079011678695679 C 0 1.203180551528931 0.6726735234260559 0.5 1.502458333969116 0.5 L 1.502458333969116 0.5 Z" stroke="rgba(0, 0, 0, 0)" stroke-width="0.4" style="fill: rgb(255, 255, 255)"></path><rect id="d841681c-f3f6-4ee0-ac52-ee2f5a558e93" x="437.6" y="101.4" width="3.6" height="3.2" stroke="rgba(0, 0, 0, 0)" stroke-width="0.4" style="fill: rgb(255, 255, 255)"></rect><path id="2ec7315d-a346-4616-94f5-cbb54283043b" transform="translate(437.20000000000005,100.80000000000001) scale(0.4 0.4)" d="M 24.5 5.732277870178223 C 24.5 6.613896369934082 23.84807205200195 7.343249320983887 23 7.464555740356445 L 23 4 C 23.84807205200195 4.121306419372559 24.5 4.850659370422363 24.5 5.732277870178223 Z" stroke="rgba(0, 0, 0, 0)" stroke-width="0.4" style="fill: rgb(255, 255, 255)"></path><text id="9c715fa5-fcd4-4820-86d8-2381ecd4f5da__0" x="426" y="104.60000000000001" font-size="0.3em" font-family="Segoe UI" font-style="normal" font-weight="normal" fill="rgb(243, 250, 255)">42%</text><path id="c2764c89-efd9-45ab-9f93-bcd0af02504d" transform="translate(300.40000000000003,99.2) scale(0.4 0.4)" d="M 306.4277648925781 14.36894607543945 L 306.4277648925781 10.81073188781738 L 308.1397705078125 12.67517852783203 L 306.4277648925781 14.36894607543945 L 306.4277648925781 14.36894607543945 L 306.4277648925781 14.36894607543945 L 306.4277648925781 14.36894607543945 Z M 308.2183532714844 7.346535682678223 L 306.4277648925781 9.147821426391602 L 306.4277648925781 5.735214233398438 L 308.2183532714844 7.346535682678223 L 308.2183532714844 7.346535682678223 L 308.2183532714844 7.346535682678223 L 308.2183532714844 7.346535682678223 Z M 306.8578796386719 10.01085662841797 L 309.5148315429688 7.346535682678223 L 305.5505981445313 3.5 L 305.4569396972656 3.5 L 305.4569396972656 8.849857330322266 L 302.76611328125 6.028839111328125 L 302 6.829196453094482 L 305.2376403808594 10.01085662841797 L 302 13.19203567504883 L 302.76611328125 13.99239253997803 L 305.4569396972656 11.1713752746582 L 305.4569396972656 16.52075004577637 L 305.6282348632813 16.52075004577637 L 309.5534057617188 12.66457176208496 L 306.8578796386719 10.01085662841797 L 306.8578796386719 10.01085662841797 Z" stroke="rgba(0, 0, 0, 0)" stroke-width="0.4" style="fill: rgb(255, 255, 255)"></path><text id="8103aa63-1544-4cac-b253-3473c6834545__0" x="365.6" y="105" font-size="0.3em" font-family="Segoe UI" font-style="normal" font-weight="normal" fill="rgb(243, 250, 255)">9:41 AM</text><path id="9b27b228-64a1-4bc3-9410-5e8b8e9bfd71" transform="translate(300.6,98.80000000000001) scale(0.4 0.4)" d="M 90.49575042724609 7.020876884460449 C 92.43552398681641 7.020876884460449 94.20336151123047 7.735452175140381 95.55885314941406 8.907177925109863 L 96.5 7.868109703063965 C 94.89459991455078 6.474465847015381 92.79788970947266 5.5 90.49575042724609 5.5 C 88.19711303710938 5.5 86.10340118408203 6.47150707244873 84.5 7.86071252822876 L 85.43914794921875 8.901260375976563 C 86.79364013671875 7.732986450195313 88.55847930908203 7.020876884460449 90.49575042724609 7.020876884460449 L 90.49575042724609 7.020876884460449 Z M 90.49575042724609 10.02021884918213 C 91.65831756591797 10.02021884918213 92.72042083740234 10.44235610961914 93.53961181640625 11.13769817352295 L 94.53524017333984 10.03797245025635 C 93.45164489746094 9.107890129089355 92.04217529296875 8.50032901763916 90.49575042724609 8.50032901763916 C 88.95233154296875 8.50032901763916 87.54386138916016 9.106410980224609 86.46126556396484 10.03353404998779 L 87.45539093017578 11.13473987579346 C 88.27408599853516 10.44087696075439 89.33468627929688 10.02021884918213 90.49575042724609 10.02021884918213 L 90.49575042724609 10.02021884918213 Z M 92.54347991943359 12.23742485046387 C 91.98918914794922 11.77731513977051 91.27545928955078 11.45873928070068 90.49525451660156 11.45873928070068 C 89.71654510498047 11.45873928070068 89.00381469726563 11.77682209014893 88.44951629638672 12.23495864868164 L 90.49525451660156 14.5 L 92.54347991943359 12.23742485046387 L 92.54347991943359 12.23742485046387 Z" stroke="rgba(0, 0, 0, 0)" stroke-width="0.4" style="fill: rgb(255, 255, 255)"></path><text id="17836d05-087b-43f7-bf8a-b031b7efba95__0" x="318" y="104.60000000000001" font-size="0.3em" font-family="Segoe UI" font-style="normal" font-weight="normal" fill="rgb(243, 250, 255)">Carrier</text><circle id="7b7d7610-f24a-4ccf-986f-17728dc4f234" cx="304.3" cy="103.3" r="1.1" stroke="rgba(0, 0, 0, 0)" stroke-width="0.4" style="fill: rgb(255, 255, 255)"></circle><circle id="1d84d90c-4a50-4cda-a592-262872648ae2" cx="307.1" cy="103.3" r="1.1" stroke="rgba(0, 0, 0, 0)" stroke-width="0.4" style="fill: rgb(255, 255, 255)"></circle><circle id="ec2c644c-3f14-4340-8982-166417abfeaa" cx="309.90000000000003" cy="103.3" r="1.1" stroke="rgba(0, 0, 0, 0)" stroke-width="0.4" style="fill: rgb(255, 255, 255)"></circle><path id="e36ff823-6491-4983-b2e5-a1f832614592" transform="translate(303.2,102.2) scale(0.4 0.4)" d="M 23.75 5 L 23.75 5 C 24.99264144897461 5 26 3.992640733718872 26 2.75 C 26 1.507359266281128 24.99264144897461 0.5 23.75 0.5 C 22.50735855102539 0.5 21.5 1.507359266281128 21.5 2.75 C 21.5 3.992640733718872 22.50735855102539 5 23.75 5 L 23.75 5 Z M 23.75 5.5 L 23.75 5.5 C 22.23121643066406 5.5 21 4.268783092498779 21 2.75 C 21 1.231216907501221 22.23121643066406 0 23.75 0 C 25.26878356933594 0 26.5 1.231216907501221 26.5 2.75 C 26.5 4.268783092498779 25.26878356933594 5.5 23.75 5.5 L 23.75 5.5 Z" stroke="rgba(0, 0, 0, 0)" stroke-width="0.4" style="fill: rgb(255, 255, 255)"></path><path id="63b12a3a-3cd6-424e-bd82-5aad273b8d99" transform="translate(303.2,102.2) scale(0.4 0.4)" d="M 30.75 5 L 30.75 5 C 31.99264144897461 5 33 3.992640733718872 33 2.75 C 33 1.507359266281128 31.99264144897461 0.5 30.75 0.5 C 29.50735855102539 0.5 28.5 1.507359266281128 28.5 2.75 C 28.5 3.992640733718872 29.50735855102539 5 30.75 5 L 30.75 5 Z M 30.75 5.5 L 30.75 5.5 C 29.23121643066406 5.5 28 4.268783092498779 28 2.75 C 28 1.231216907501221 29.23121643066406 0 30.75 0 C 32.26878356933594 0 33.5 1.231216907501221 33.5 2.75 C 33.5 4.268783092498779 32.26878356933594 5.5 30.75 5.5 L 30.75 5.5 Z" stroke="rgba(0, 0, 0, 0)" stroke-width="0.4" style="fill: rgb(255, 255, 255)"></path><rect id="c6d8b786-a7e8-461f-8183-239bd8c621ea" x="314" y="459.6" width="122" height="16.8" stroke="rgb(0, 169, 222)" stroke-width="0.4" style="fill: rgb(0, 169, 222)"></rect><text id="c58303f9-23ac-41d5-8523-ce6086d143a3__0" x="360.39804687500003" y="470.1616943359375" font-size="0.35em" font-family="Segoe UI" font-style="normal" font-weight="normal" fill="rgb(251, 247, 255)">Next Article</text><text id="3cafdd10-d524-4c04-a82e-6c209c30b6b0__0" x="368" y="404.40000000000003" font-size="0.4em" font-family="Georgia" font-style="normal" font-weight="normal" fill="rgb(44, 44, 44)">After 6 months of cooking </text><text id="3cafdd10-d524-4c04-a82e-6c209c30b6b0__1" x="368" y="412.00000000000006" font-size="0.4em" font-family="Georgia" font-style="normal" font-weight="normal" fill="rgb(44, 44, 44)">on camp stoves, this was </text><text id="3cafdd10-d524-4c04-a82e-6c209c30b6b0__2" x="368" y="419.6" font-size="0.4em" font-family="Georgia" font-style="normal" font-weight="normal" fill="rgb(44, 44, 44)">the last stove standing.</text><rect id="9aab8c22-efcb-46f3-abb4-4d3eb1ab4585" x="306.40000000000003" y="383.20000000000005" width="63.2" height="63.2" fill="transparent"></rect><text id="707d18c0-c241-4b3a-bc4b-9417c6752ce1__0" x="326.88623046875" y="439.6" font-size="0.375em" font-family="Segoe UI" font-style="normal" font-weight="normal" fill="rgb(0, 169, 222)">Supplies</text><rect id="9f1fe9a4-6665-4891-9265-1e1f0e2b98a5" x="333.5999755859375" y="410.8" width="8.4" height="10.8" stroke="rgb(12, 170, 220)" stroke-width="1.2000000000000002" style="fill: rgb(255, 255, 255)"></rect><line id="9bbb5ab0-3703-4fad-b228-d4e8d74c8d66" x1="486.751611328125" y1="437.5470794677735" x2="491.55161132812503" y2="437.5470794677735" stroke="rgb(12, 170, 220)" stroke-width="0.8" fill="transparent"></line><line id="6520e90f-a444-4cf8-869b-be521516a01f" x1="484.9516052246094" y1="432.9127655029297" x2="488.55160522460943" y2="432.9127655029297" stroke="rgb(12, 170, 220)" stroke-width="0.8" fill="transparent"></line><path id="780c41c4-47ca-4413-a4b2-292ab3887130" transform="translate(335.1999877929688,405.38010253906253) scale(0.4 0.4)" d="M 6.8714280128479 0.3160097599029541 C 6.5 -0.03866995126008987 5.942856788635254 -0.03866995126008987 5.757143020629883 0.3160097599029541 C 3.528571367263794 3.685467720031738 0 8.650981903076172 0 11.84310150146484 C 0 15.38989925384521 2.971428394317627 18.04999923706055 6.5 18.04999923706055 C 10.21428489685059 18.04999923706055 13 15.21256065368652 13 11.84310150146484 C 12.81428623199463 8.82832145690918 9.285712242126465 3.685467720031738 6.8714280128479 0.3160097599029541 Z" style="fill: rgb(12, 170, 220)"></path><line id="303eda0e-7172-47e8-b175-22965538dbc0" x1="337.8" y1="412.20000000000005" x2="337.8" y2="416.20000000000005" stroke="rgb(12, 170, 220)" stroke-width="0.8" fill="transparent"></line><circle id="f0a6ebbf-9746-4f86-bfc4-dd98f807676d" cx="337.8" cy="390.6" r="1.8" stroke="rgb(12, 170, 220)" stroke-width="1.2000000000000002" style="fill: rgb(255, 255, 255)"></circle><line id="0c372894-d284-4f98-b9be-24126077a235" x1="325.8" y1="395.8" x2="349.8" y2="395.8" stroke="rgb(12, 170, 220)" stroke-width="1.2000000000000002" fill="transparent"></line><line id="110d6f1e-f98b-4f8b-9765-e1d20f197c7f" x1="329" y1="425.8" x2="347" y2="425.8" stroke="rgb(12, 170, 220)" stroke-width="1.2000000000000002" fill="transparent"></line><rect id="358873e5-1720-4f1d-bf9c-6f4f3bb10fad" x="330" y="393.20000000000005" width="15.600000000000001" height="2.8000000000000003" stroke="rgb(12, 170, 220)" stroke-width="1.2000000000000002" style="fill: rgb(255, 255, 255)"></rect><rect id="fda9f130-2085-42ca-a46b-7746ecd901a0" x="671.2" y="-308.40000000000003" width="213.4" height="311.6" fill="url(#img3)"></rect><defs><pattern id="img3" preserveAspectRatio="xMidYMid slice" width="100%" height="100%" viewBox="0 0 1067 1558"><image xlink:href="/resources/a501b8f826bbb7df8834ae9adbe49e23" x="0" y="0" width="1067" height="1558"></image></pattern></defs><rect id="6817d6f4-e139-499b-9250-fab747abb2f8" x="700.6" y="-78.4" width="139.20000000000002" height="45.99998779296875" style="fill: rgb(12, 170, 220)"></rect><rect id="0c932220-09d0-4073-af3d-a90eec15392d" x="700.6" y="-77.9999755859375" width="117.60001220703126" height="45.99998779296875" fill="url(#img4)"></rect><defs><pattern id="img4" preserveAspectRatio="xMidYMid slice" width="100%" height="100%" viewBox="0 0 1225 479"><image xlink:href="/resources/1e3480f6787ebcf2c6b584f557fa7d2d" x="0" y="0" width="1225" height="479"></image></pattern></defs><rect id="3a708c04-3011-4497-829e-f6920e72b735" x="700.6" y="-78.4" width="139.20001220703125" height="45.99998779296875" style="fill: rgb(0, 0, 0)"></rect><path id="0762fc46-0d8a-466c-93ca-c61a5c5c9bab" transform="translate(782.2,-48) scale(0.4 0.4)" d="M 9.110000610351563 6.539999961853027 C 9.460000038146973 5.860000133514404 10.01000022888184 5.809999942779541 10.39000034332275 6.46999979019165 C 11.42000007629395 8.289999008178711 13.05000019073486 11.88999652862549 13.83000087738037 13.39999580383301 C 14.19999885559082 14.11999797821045 14.65999984741211 14.13999843597412 15.10000038146973 13.37999629974365 C 15.76000118255615 12.26999759674072 17.21999931335449 9.95999813079834 17.95000267028809 8.709997177124023 C 18.32999992370605 8.049999237060547 19.01000213623047 8.060000419616699 19.42000007629395 8.69999885559082 C 20.67000007629395 10.65999603271484 23.03000259399414 15.07999610900879 23.8799991607666 16.67999839782715 C 24.2400016784668 17.35999488830566 23.7600040435791 17.99999618530273 23.05000305175781 17.99999618530273 L 4.989999294281006 17.99999618530273 C 4.28000020980835 17.99999618530273 3.839999675750732 17.3899974822998 4.059999942779541 16.63999557495117 C 4.59999942779541 14.77999591827393 7.780000686645508 9.069995880126953 9.110000610351563 6.539999961853027" stroke="rgba(0, 0, 0, 0)" stroke-width="0.4" style="fill: rgb(255, 255, 255)"></path><text id="095dbf8f-6ad3-44ca-a458-e5203f560be5__0" x="777.8000061035157" y="-50.400048828125" font-size="0.15em" font-family="Segoe UI" font-style="normal" font-weight="normal" fill="rgb(255, 255, 255)">White Throne</text><text id="042d9c2f-0252-437b-a3a9-8225b48abc19__0" x="780.0000183105469" y="-53.6" font-size="0.15em" font-family="Segoe UI" font-style="normal" font-weight="normal" fill="rgb(255, 255, 255)">The Great</text><path id="fc26b3dd-3e5e-4f07-a4c3-6a74c143b89f" transform="translate(718.600001525879,-66.8000244140625) scale(0.4 0.4)" d="M 9.110000610351563 6.539999961853027 C 9.460000038146973 5.860000133514404 10.01000022888184 5.809999942779541 10.39000034332275 6.46999979019165 C 11.42000007629395 8.289999008178711 13.05000019073486 11.88999652862549 13.83000087738037 13.39999580383301 C 14.19999885559082 14.11999797821045 14.65999984741211 14.13999843597412 15.10000038146973 13.37999629974365 C 15.76000118255615 12.26999759674072 17.21999931335449 9.95999813079834 17.95000267028809 8.709997177124023 C 18.32999992370605 8.049999237060547 19.01000213623047 8.060000419616699 19.42000007629395 8.69999885559082 C 20.67000007629395 10.65999603271484 23.03000259399414 15.07999610900879 23.8799991607666 16.67999839782715 C 24.2400016784668 17.35999488830566 23.7600040435791 17.99999618530273 23.05000305175781 17.99999618530273 L 4.989999294281006 17.99999618530273 C 4.28000020980835 17.99999618530273 3.839999675750732 17.3899974822998 4.059999942779541 16.63999557495117 C 4.59999942779541 14.77999591827393 7.780000686645508 9.069995880126953 9.110000610351563 6.539999961853027" stroke="rgba(0, 0, 0, 0)" stroke-width="0.4" style="fill: rgb(255, 255, 255)"></path><text id="bcaa4167-64ff-4100-832b-76d34271ea26__0" x="714.6" y="-69.19997558593751" font-size="0.125em" font-family="Segoe UI" font-style="normal" font-weight="normal" fill="rgb(255, 255, 255)">Mt Majestic</text><rect id="6e887eee-a68b-4b87-b1d3-d3721078a712" x="700.6" y="-159.60000000000002" width="139.20000000000002" height="76" style="fill: rgb(255, 255, 255)"></rect><text id="60bee44c-31c4-453e-8386-75863b566792__0" x="715.8875" y="-98" font-size="0.5em" font-family="Segoe UI" font-style="normal" font-weight="normal" fill="rgb(12, 170, 220)">10</text><text id="9c51113d-05f5-4c25-bc53-1e55c77c8718__0" x="715.4080390930176" y="-90.80000000000001" font-size="0.275em" font-family="Segoe UI" font-style="normal" font-weight="normal" fill="rgb(162, 162, 162)">Days</text><line id="3d810cdf-7827-4d27-b57d-a2765963c56a" x1="737.2" y1="-107.4" x2="737.2" y2="-88.2" stroke="rgb(41, 41, 41)" stroke-width="0.4" fill="transparent"></line><text id="eb4a8ca5-640a-4c92-b428-1bf60abcfe18__0" x="746.53125" y="-98" font-size="0.5em" font-family="Segoe UI" font-style="normal" font-weight="normal" fill="rgb(12, 170, 220)">160</text><text id="61c19dfb-58c2-49fe-b675-4b0e52206dfe__0" x="747.698902130127" y="-90.80000000000001" font-size="0.275em" font-family="Segoe UI" font-style="normal" font-weight="normal" fill="rgb(162, 162, 162)">Miles</text><line id="5687319e-26cd-425e-a442-e49fb8fd33f2" x1="770" y1="-107.4" x2="770" y2="-88.2" stroke="rgb(41, 41, 41)" stroke-width="0.4" fill="transparent"></line><text id="6ea0ee86-14fa-4340-a845-9e2c0d94d28c__0" x="783.6437500000001" y="-98" font-size="0.5em" font-family="Segoe UI" font-style="normal" font-weight="normal" fill="rgb(12, 170, 220)">5</text><text id="7dc91471-34f7-49e6-a56d-160d2cb8c71c__0" x="779.0207778930665" y="-90.80000000000001" font-size="0.275em" font-family="Segoe UI" font-style="normal" font-weight="normal" fill="rgb(162, 162, 162)">Camps</text><line id="229f3c5e-bd4c-42ca-b829-523f71fd900a" x1="802.8000000000001" y1="-107.4" x2="802.8000000000001" y2="-88.2" stroke="rgb(41, 41, 41)" stroke-width="0.4" fill="transparent"></line><text id="b24306f7-9524-44ab-bdaf-3eef6c41c825__0" x="816.44375" y="-98" font-size="0.5em" font-family="Segoe UI" font-style="normal" font-weight="normal" fill="rgb(12, 170, 220)">2</text><text id="cb95fc4d-fee9-4547-9001-94680dbf29b2__0" x="813.1947032928467" y="-90.80000000000001" font-size="0.275em" font-family="Segoe UI" font-style="normal" font-weight="normal" fill="rgb(162, 162, 162)">Bears</text><line id="3b1e2ee5-12f1-4ac3-a794-29ffa3054c1a" x1="835.6" y1="-107.4" x2="835.6" y2="-88.2" stroke="rgb(41, 41, 41)" stroke-width="0.4" fill="transparent"></line><path id="de9c5d19-9a62-463a-8478-d8b7e5d1a954" transform="translate(754.2,-141.109130859375) scale(0.4 0.4)" d="M 37.34356689453125 0 C 57.96784973144531 0 74.6871337890625 16.06689453125 74.6871337890625 35.88641357421875 C 74.6871337890625 55.70593643188477 57.96784973144531 71.7728271484375 37.34356689453125 71.7728271484375 C 16.71928405761719 71.7728271484375 0 55.70593643188477 0 35.88641357421875 C 0 16.06689453125 16.71928405761719 0 37.34356689453125 0 Z" fill="url(#img5)"></path><defs><pattern id="img5" preserveAspectRatio="xMidYMid slice" width="100%" height="100%" viewBox="0 0 472 896"><image xlink:href="/resources/832f9b5fdff500a0e7a2a05673a0142a" x="0" y="0" width="472" height="896"></image></pattern></defs><circle id="74f7d331-fab9-4569-9237-5aa2437ab2fb" cx="827.4000000000001" cy="-148.8" r="4.2" stroke="rgb(35, 31, 32)" stroke-width="1.2000000000000002" fill="transparent"></circle><path id="fc448110-cb5c-4f53-b2c4-9c6c9ffbfff0" transform="translate(822.6,-153.60000000000002) scale(0.4 0.4)" d="M 7.599999904632568 7.099999904632568 C 7.299999713897705 7.099999904632568 7.099999904632568 7.299999713897705 7.199999809265137 7.5 C 7.699999809265137 9.800000190734863 8.300000190734863 13.10000038146973 9.600000381469727 14.39999961853027 C 11 15.79999923706055 13.20000076293945 15.79999923706055 14.5 14.39999961853027 C 15.79999923706055 13 15.89999961853027 10.79999923706055 14.5 9.5 C 13.19999980926514 8.300000190734863 9.899999618530273 7.599999904632568 7.599999904632568 7.099999904632568 Z M 13.10000038146973 13.10000038146973 C 12.5 13.70000076293945 11.60000038146973 13.70000076293945 11 13.10000038146973 C 10.39999961853027 12.5 10.39999961853027 11.60000038146973 11 11 C 11.60000038146973 10.39999961853027 12.5 10.39999961853027 13.10000038146973 11 C 13.60000038146973 11.5 13.60000038146973 12.5 13.10000038146973 13.10000038146973 Z" style="fill: rgb(35, 31, 32)"></path><text id="0ca26316-309f-404f-b70d-830837a485bc__0" x="707" y="-150.4" font-size="0.275em" font-family="Segoe UI" font-style="normal" font-weight="normal" fill="rgb(53, 53, 53)">YOUR LATEST TRIP</text><rect id="9cd50dba-19b3-4903-9adb-4dd6b0581824" x="700.6" y="-184.8" width="139.20000000000002" height="19.200000000000003" stroke="rgb(0, 169, 222)" stroke-width="0.4" style="fill: rgb(0, 169, 222)"></rect><text id="b2df475c-d46c-4fd6-9596-f3492eecb47f__0" x="754.0633560180664" y="-173" font-size="0.4em" font-family="Segoe UI" font-style="normal" font-weight="normal" fill="rgb(251, 247, 255)">OUR BLOG</text><line id="afca8fae-b487-45a1-98cc-c2d2ba12182a" x1="752.8000000000001" y1="-205" x2="788.0000000000001" y2="-205" stroke="rgb(12, 170, 220)" stroke-width="0.8" fill="transparent"></line><text id="558ac2ca-7b35-44df-81fe-7a6a7bb6aab9__0" x="727.9292968750001" y="-239.60000000000002" font-size="1.05em" font-family="Segoe UI" font-style="normal" font-weight="normal" fill="rgb(255, 255, 255)">Welcome to </text><text id="558ac2ca-7b35-44df-81fe-7a6a7bb6aab9__1" x="729.10234375" y="-217.20000000000002" font-size="1.05em" font-family="Segoe UI" font-style="normal" font-weight="normal" fill="rgb(255, 255, 255)">Campvibes!</text><path id="7e764f14-a396-483a-9def-90e5c6bd20cc" transform="translate(755.2,-567.6) scale(0.4 0.4)" d="M 204.3553771972656 739.3668212890625 C 207.0109252929688 739.9168701171875 209.1165161132813 742.00732421875 209.6743621826172 744.64794921875 C 210.7821807861328 749.59912109375 206.6809692382813 753.89013671875 201.809814453125 753.22216796875 C 198.5964202880859 752.8919677734375 196.04296875 750.25927734375 195.60302734375 747.1785888671875 C 195.0451812744141 742.3375244140625 199.3663787841797 738.2667236328125 204.3553771972656 739.3668212890625 L 204.3553771972656 739.3668212890625 Z M 211.9999542236328 746.7384033203125 C 211.9999542236328 745.96826171875 211.9999542236328 745.1981201171875 211.7799682617188 744.4281005859375 C 211.1121368408203 740.797119140625 208.1187591552734 737.9364013671875 204.4653778076172 737.166259765625 C 198.5964202880859 736.0660400390625 193.3874206542969 740.5770263671875 193.3874206542969 746.2984619140625 C 193.3874206542969 748.3887939453125 194.0473785400391 750.25927734375 195.2730102539063 751.799560546875 C 193.3874206542969 753.662109375 190.7239837646484 756.1927490234375 190.5039825439453 756.4127197265625 C 190.1739959716797 756.8529052734375 189.6161804199219 757.8431396484375 190.3939971923828 758.61328125 C 191.1717987060547 759.3834228515625 192.1696166992188 758.8331298828125 192.6095886230469 758.5032958984375 L 197.3707733154297 753.772216796875 C 198.9263763427734 754.8724365234375 200.8119812011719 755.532470703125 202.9176025390625 755.532470703125 C 207.6787719726563 755.532470703125 211.7799682617188 751.6895751953125 211.9999542236328 746.7384033203125 L 211.9999542236328 746.7384033203125 Z" stroke="rgba(0, 0, 0, 0)" stroke-width="0.4" style="fill: rgb(255, 255, 255)"></path><path id="0da10b9d-ca2c-4bee-98df-8b8f4e88d91a" transform="translate(700.839990234375,-272.8) scale(0.4 0.4)" d="M 13.89999961853027 0 C 13.20496368408203 0 12.80780029296875 0.4057970941066742 12.60921859741211 0.7101449370384216 L 3.474467992782593 17.95652198791504 L 1.488652467727661 17.95652198791504 C 0.5950354337692261 17.95652198791504 -0.1000000238418579 18.66666793823242 -0.1000000238418579 19.47826194763184 C -0.1000000238418579 20.28985595703125 0.5950353741645813 21 1.488652467727661 21 L 4.368085384368896 21 L 23.43191337585449 21 L 26.31134605407715 21 C 27.20496368408203 21 27.89999961853027 20.28985595703125 27.89999961853027 19.47826194763184 C 27.89999961853027 18.66666793823242 27.20496368408203 17.95652198791504 26.31134605407715 17.95652198791504 L 24.32553100585938 17.95652198791504 L 15.19077968597412 0.7101449370384216 C 14.99219799041748 0.4057970941066742 14.5950345993042 0 13.89999961853027 0 L 13.89999961853027 0 Z M 13.89999961853027 7.507246494293213 L 19.06311988830566 17.95652198791504 L 8.736879348754883 17.95652198791504 L 13.89999961853027 7.507246494293213 Z" style="fill: rgb(255, 255, 255)"></path><path id="26626f75-0ca7-4201-a1e1-961861566a48" transform="translate(832.4000000000001,-285.2) scale(0.4 0.4)" d="M 1.502458333969116 1.026315808296204 L 1.502458333969116 1.026315808296204 C 0.9472132325172424 1.026315808296204 0.5 1.495540976524353 0.5 2.079011678695679 L 0.5 8.920988082885742 C 0.5 9.501893043518066 0.9490637183189392 9.973684310913086 1.502458333969116 9.973684310913086 L 20.9975414276123 9.973684310913086 C 21.55278587341309 9.973684310913086 22 9.504459381103516 22 8.920988082885742 L 22 2.079011678695679 C 22 1.498106837272644 21.55093574523926 1.026315808296204 20.9975414276123 1.026315808296204 L 1.502458333969116 1.026315808296204 Z M 1.502458333969116 0.5 L 1.502458333969116 0.5 L 20.9975414276123 0.5 C 21.82662010192871 0.5 22.5 1.206947565078735 22.5 2.079011678695679 L 22.5 8.920988082885742 C 22.5 9.796819686889648 21.82732582092285 10.5 20.9975414276123 10.5 L 1.502458333969116 10.5 C 0.6733803153038025 10.5 0 9.793052673339844 0 8.920988082885742 L 0 2.079011678695679 C 0 1.203180551528931 0.6726735234260559 0.5 1.502458333969116 0.5 L 1.502458333969116 0.5 Z" stroke="rgba(0, 0, 0, 0)" stroke-width="0.4" style="fill: rgb(255, 255, 255)"></path><rect id="ef43d365-7418-4b60-a94e-c7d4db45129c" x="832.8000000000001" y="-284.6" width="3.6" height="3.2" stroke="rgba(0, 0, 0, 0)" stroke-width="0.4" style="fill: rgb(255, 255, 255)"></rect><path id="af728cfb-cd46-4531-a257-4dd235622206" transform="translate(832.4000000000001,-285.2) scale(0.4 0.4)" d="M 24.5 5.732277870178223 C 24.5 6.613896369934082 23.84807205200195 7.343249320983887 23 7.464555740356445 L 23 4 C 23.84807205200195 4.121306419372559 24.5 4.850659370422363 24.5 5.732277870178223 Z" stroke="rgba(0, 0, 0, 0)" stroke-width="0.4" style="fill: rgb(255, 255, 255)"></path><text id="7ede4d8b-045a-4d1c-886e-75afe830b8e8__0" x="821.2" y="-281.40000000000003" font-size="0.3em" font-family="Segoe UI" font-style="normal" font-weight="normal" fill="rgb(243, 250, 255)">42%</text><path id="7180fbf8-cb24-40e6-9a04-04f2d98f8ece" transform="translate(695.6,-286.8) scale(0.4 0.4)" d="M 306.4277648925781 14.36894607543945 L 306.4277648925781 10.81073188781738 L 308.1397705078125 12.67517852783203 L 306.4277648925781 14.36894607543945 L 306.4277648925781 14.36894607543945 L 306.4277648925781 14.36894607543945 L 306.4277648925781 14.36894607543945 Z M 308.2183532714844 7.346535682678223 L 306.4277648925781 9.147821426391602 L 306.4277648925781 5.735214233398438 L 308.2183532714844 7.346535682678223 L 308.2183532714844 7.346535682678223 L 308.2183532714844 7.346535682678223 L 308.2183532714844 7.346535682678223 Z M 306.8578796386719 10.01085662841797 L 309.5148315429688 7.346535682678223 L 305.5505981445313 3.5 L 305.4569396972656 3.5 L 305.4569396972656 8.849857330322266 L 302.76611328125 6.028839111328125 L 302 6.829196453094482 L 305.2376403808594 10.01085662841797 L 302 13.19203567504883 L 302.76611328125 13.99239253997803 L 305.4569396972656 11.1713752746582 L 305.4569396972656 16.52075004577637 L 305.6282348632813 16.52075004577637 L 309.5534057617188 12.66457176208496 L 306.8578796386719 10.01085662841797 L 306.8578796386719 10.01085662841797 Z" stroke="rgba(0, 0, 0, 0)" stroke-width="0.4" style="fill: rgb(255, 255, 255)"></path><text id="f8a62b0b-f530-4c0a-a22a-e9d08f777178__0" x="760.8000000000001" y="-281" font-size="0.3em" font-family="Segoe UI" font-style="normal" font-weight="normal" fill="rgb(243, 250, 255)">9:41 AM</text><path id="58bb9c99-e2f3-4cbb-89cf-18681490a440" transform="translate(695.8000000000001,-287.2) scale(0.4 0.4)" d="M 90.49575042724609 7.020876884460449 C 92.43552398681641 7.020876884460449 94.20336151123047 7.735452175140381 95.55885314941406 8.907177925109863 L 96.5 7.868109703063965 C 94.89459991455078 6.474465847015381 92.79788970947266 5.5 90.49575042724609 5.5 C 88.19711303710938 5.5 86.10340118408203 6.47150707244873 84.5 7.86071252822876 L 85.43914794921875 8.901260375976563 C 86.79364013671875 7.732986450195313 88.55847930908203 7.020876884460449 90.49575042724609 7.020876884460449 L 90.49575042724609 7.020876884460449 Z M 90.49575042724609 10.02021884918213 C 91.65831756591797 10.02021884918213 92.72042083740234 10.44235610961914 93.53961181640625 11.13769817352295 L 94.53524017333984 10.03797245025635 C 93.45164489746094 9.107890129089355 92.04217529296875 8.50032901763916 90.49575042724609 8.50032901763916 C 88.95233154296875 8.50032901763916 87.54386138916016 9.106410980224609 86.46126556396484 10.03353404998779 L 87.45539093017578 11.13473987579346 C 88.27408599853516 10.44087696075439 89.33468627929688 10.02021884918213 90.49575042724609 10.02021884918213 L 90.49575042724609 10.02021884918213 Z M 92.54347991943359 12.23742485046387 C 91.98918914794922 11.77731513977051 91.27545928955078 11.45873928070068 90.49525451660156 11.45873928070068 C 89.71654510498047 11.45873928070068 89.00381469726563 11.77682209014893 88.44951629638672 12.23495864868164 L 90.49525451660156 14.5 L 92.54347991943359 12.23742485046387 L 92.54347991943359 12.23742485046387 Z" stroke="rgba(0, 0, 0, 0)" stroke-width="0.4" style="fill: rgb(255, 255, 255)"></path><text id="f508e1ab-d5ad-400f-98f4-76c9afc089a1__0" x="713.2" y="-281.40000000000003" font-size="0.3em" font-family="Segoe UI" font-style="normal" font-weight="normal" fill="rgb(243, 250, 255)">Carrier</text><circle id="8b2e2d83-7f51-4bd7-a2ec-ee709eb9483f" cx="699.5000000000001" cy="-282.7" r="1.1" stroke="rgba(0, 0, 0, 0)" stroke-width="0.4" style="fill: rgb(255, 255, 255)"></circle><circle id="cdee86f0-d31b-4f92-a793-ed5be88bd6c8" cx="702.3000000000001" cy="-282.7" r="1.1" stroke="rgba(0, 0, 0, 0)" stroke-width="0.4" style="fill: rgb(255, 255, 255)"></circle><circle id="5a4b0408-cf36-487b-a932-90e064c35113" cx="705.1" cy="-282.7" r="1.1" stroke="rgba(0, 0, 0, 0)" stroke-width="0.4" style="fill: rgb(255, 255, 255)"></circle><path id="ff288971-a9e0-4f83-ad40-9c8da4df4b33" transform="translate(698.4000000000001,-283.8) scale(0.4 0.4)" d="M 23.75 5 L 23.75 5 C 24.99264144897461 5 26 3.992640733718872 26 2.75 C 26 1.507359266281128 24.99264144897461 0.5 23.75 0.5 C 22.50735855102539 0.5 21.5 1.507359266281128 21.5 2.75 C 21.5 3.992640733718872 22.50735855102539 5 23.75 5 L 23.75 5 Z M 23.75 5.5 L 23.75 5.5 C 22.23121643066406 5.5 21 4.268783092498779 21 2.75 C 21 1.231216907501221 22.23121643066406 0 23.75 0 C 25.26878356933594 0 26.5 1.231216907501221 26.5 2.75 C 26.5 4.268783092498779 25.26878356933594 5.5 23.75 5.5 L 23.75 5.5 Z" stroke="rgba(0, 0, 0, 0)" stroke-width="0.4" style="fill: rgb(255, 255, 255)"></path><path id="467ff6df-ee93-43f5-93d5-87755f07b32a" transform="translate(698.4000000000001,-283.8) scale(0.4 0.4)" d="M 30.75 5 L 30.75 5 C 31.99264144897461 5 33 3.992640733718872 33 2.75 C 33 1.507359266281128 31.99264144897461 0.5 30.75 0.5 C 29.50735855102539 0.5 28.5 1.507359266281128 28.5 2.75 C 28.5 3.992640733718872 29.50735855102539 5 30.75 5 L 30.75 5 Z M 30.75 5.5 L 30.75 5.5 C 29.23121643066406 5.5 28 4.268783092498779 28 2.75 C 28 1.231216907501221 29.23121643066406 0 30.75 0 C 32.26878356933594 0 33.5 1.231216907501221 33.5 2.75 C 33.5 4.268783092498779 32.26878356933594 5.5 30.75 5.5 L 30.75 5.5 Z" stroke="rgba(0, 0, 0, 0)" stroke-width="0.4" style="fill: rgb(255, 255, 255)"></path><rect id="3a124884-daa0-49ca-a2aa-162872ffcd6e" x="1096" y="95.60000000000001" width="232" height="182.4" style="fill: rgb(247, 247, 247)"></rect><rect id="129fc0f2-7645-48d4-a747-4da22a71b812" x="1104" y="103.60000000000001" width="216" height="166.4" style="fill: rgb(255, 255, 255)"></rect><text id="c68be000-19cf-4aec-aab1-30692eefc7ca__0" x="1163.6000000000001" y="207.60000000000002" font-size="0.6em" font-family="Segoe UI" font-style="normal" font-weight="normal" fill="rgb(131, 134, 136)">You're ready to create a new </text><text id="c68be000-19cf-4aec-aab1-30692eefc7ca__1" x="1163.6000000000001" y="221.20000000000002" font-size="0.6em" font-family="Segoe UI" font-style="normal" font-weight="normal" fill="rgb(131, 134, 136)">design with              or you can </text><text id="c68be000-19cf-4aec-aab1-30692eefc7ca__2" x="1163.6000000000001" y="234.8" font-size="0.6em" font-family="Segoe UI" font-style="normal" font-weight="normal" fill="rgb(131, 134, 136)">open a Photoshop or Sketch file </text><text id="c68be000-19cf-4aec-aab1-30692eefc7ca__3" x="1163.6000000000001" y="248.40000000000003" font-size="0.6em" font-family="Segoe UI" font-style="normal" font-weight="normal" fill="rgb(131, 134, 136)">with              and work on it here.</text><text id="9f4b2929-fbab-42cd-9bcf-8a569fc411d9__0" x="1163.6000000000001" y="174.00000000000003" font-size="0.6em" font-family="Segoe UI" font-style="normal" font-weight="normal" fill="rgb(131, 134, 136)">You finished an app in Adobe XD. </text><text id="9f4b2929-fbab-42cd-9bcf-8a569fc411d9__1" x="1163.6000000000001" y="187.60000000000002" font-size="0.6em" font-family="Segoe UI" font-style="normal" font-weight="normal" fill="rgb(131, 134, 136)">Thanks for the help!</text><circle id="38039753-835e-4b3c-a3f9-aa63d915afc2" cx="1133.8" cy="180.60000000000002" r="17" fill="url(#img6)"></circle><defs><pattern id="img6" preserveAspectRatio="xMidYMid slice" width="100%" height="100%" viewBox="0 0 515 530"><image xlink:href="/resources/f51d6dba1d65d592951d46ccc4760b43" x="0" y="0" width="515" height="530"></image></pattern></defs><line id="905b1520-e83f-48f6-9890-1e9ccc81c603" x1="1116.8" y1="150.6" x2="1307.2" y2="150.6" stroke="rgb(222, 223, 224)" stroke-width="0.4" fill="transparent"></line><text id="2c8b1c9c-52f4-40a5-ab0d-2b27dd386049__0" x="1116.4150390625" y="135.6" font-size="1.15em" font-family="Segoe UI" font-style="normal" font-weight="bold" fill="rgb(12, 170, 220)">Nicely done!</text><rect id="8ee372a6-7517-4487-906f-79991b29e2ca" x="1184" y="239.87998046875" width="32.4" height="11.200000000000001" style="fill: rgb(228, 228, 228)"></rect><text id="db483eeb-c0de-4bf5-94a2-1bfe3a97d130__0" x="1185.9999572753907" y="248.4" font-size="0.5em" font-family="Segoe UI" font-style="normal" font-weight="normal" fill="rgb(102, 102, 102)">Ctrl + O</text><rect id="8b35e74f-c48f-4e24-b4e0-ad4ac1c87909" x="1214.8" y="212.67998046875002" width="32.4" height="11.200000000000001" style="fill: rgb(228, 228, 228)"></rect><text id="fe08274c-2b1c-4274-a70a-5b593c0e5b99__0" x="1216.8000381469726" y="221.20000000000002" font-size="0.5em" font-family="Segoe UI" font-style="normal" font-weight="normal" fill="rgb(102, 102, 102)">Ctrl + N</text><rect id="fb990daf-8fbb-4f2f-870e-569ee8009d72" x="1207.2" y="-290.40000000000003" width="124" height="210.4" style="fill: rgb(247, 247, 247)"></rect><text id="7529a057-247b-48fc-a78a-d5758e7ee851__0" x="1217.2" y="-129.6" font-size="0.4em" font-family="Segoe UI" font-style="normal" font-weight="normal" fill="rgb(131, 134, 136)">Select multiple images from your </text><text id="7529a057-247b-48fc-a78a-d5758e7ee851__1" x="1217.2" y="-120.80000000000001" font-size="0.4em" font-family="Segoe UI" font-style="normal" font-weight="normal" fill="rgb(131, 134, 136)">computer. Drag them, together, </text><text id="7529a057-247b-48fc-a78a-d5758e7ee851__2" x="1217.2" y="-112" font-size="0.4em" font-family="Segoe UI" font-style="normal" font-weight="normal" fill="rgb(131, 134, 136)">onto one of the images in the </text><text id="7529a057-247b-48fc-a78a-d5758e7ee851__3" x="1217.2" y="-103.2" font-size="0.4em" font-family="Segoe UI" font-style="normal" font-weight="normal" fill="rgb(131, 134, 136)">Repeat Grid. The grid will update </text><text id="7529a057-247b-48fc-a78a-d5758e7ee851__4" x="1217.2" y="-94.4" font-size="0.4em" font-family="Segoe UI" font-style="normal" font-weight="normal" fill="rgb(131, 134, 136)">with all of your images.</text><text id="66c3942d-8721-4157-b51a-0cc3a923a9db__0" x="1217.6000000000001" y="-142.4" font-size="0.4em" font-family="Segoe UI" font-style="normal" font-weight="bold" fill="rgb(51, 51, 51)">Multiple Images Pro Tip: </text><path id="0f4b0863-8a4b-4732-8203-ce6d0c832c90" transform="translate(1217.4,-157.4) scale(0.4 0.4)" d="M 0 0 C 0 0 169.609375 0 169.609375 0 L 260 0" stroke="rgb(149, 152, 154)" stroke-width="0.4" fill="transparent"></path><rect id="9995b97f-575f-4e13-bed0-70a6308e03e5" x="1253.6000000000001" y="-209.20000000000002" width="7.2" height="7.2" style="fill: rgb(228, 228, 228)"></rect><rect id="07983888-35e5-485d-a40d-c883fbbccaef" x="1255.2" y="-207.60000000000002" width="4" height="4" fill="url(#img7)"></rect><defs><pattern id="img7" preserveAspectRatio="xMidYMid slice" width="100%" height="100%" viewBox="0 0 26 26"><image xlink:href="/resources/c0ea8aa34c9f50945f83567276585e85" x="0" y="0" width="26" height="26"></image></pattern></defs><text id="51e433d7-8cd6-4e38-bf0c-a64126041ee5__0" x="1217.2" y="-220.8" font-size="0.4em" font-family="Segoe UI" font-style="normal" font-weight="normal" fill="rgb(131, 134, 136)">Select the grouped rectangle under </text><text id="51e433d7-8cd6-4e38-bf0c-a64126041ee5__1" x="1217.2" y="-212.00000000000003" font-size="0.4em" font-family="Segoe UI" font-style="normal" font-weight="normal" fill="rgb(131, 134, 136)">Latest Adventures. Click </text><text id="51e433d7-8cd6-4e38-bf0c-a64126041ee5__2" x="1217.2" y="-203.20000000000002" font-size="0.4em" font-family="Segoe UI" font-style="normal" font-weight="normal" fill="rgb(131, 134, 136)">Repeat Grid        (right panel).</text><text id="51e433d7-8cd6-4e38-bf0c-a64126041ee5__3" x="1217.2" y="-194.40000000000003" font-size="0.4em" font-family="Segoe UI" font-style="normal" font-weight="normal" fill="rgb(131, 134, 136)"></text><text id="51e433d7-8cd6-4e38-bf0c-a64126041ee5__4" x="1217.2" y="-185.60000000000002" font-size="0.4em" font-family="Segoe UI" font-style="normal" font-weight="normal" fill="rgb(131, 134, 136)">Drag the handle down to make a list. </text><text id="51e433d7-8cd6-4e38-bf0c-a64126041ee5__5" x="1217.2" y="-176.8" font-size="0.4em" font-family="Segoe UI" font-style="normal" font-weight="normal" fill="rgb(131, 134, 136)">Adjust the padding by dragging the </text><text id="51e433d7-8cd6-4e38-bf0c-a64126041ee5__6" x="1217.2" y="-168.00000000000003" font-size="0.4em" font-family="Segoe UI" font-style="normal" font-weight="normal" fill="rgb(131, 134, 136)">pink space between the items.</text><text id="6938626f-0bed-4080-aa90-c779172f9555__0" x="1217.2" y="-233.20000000000002" font-size="0.6em" font-family="Segoe UI" font-style="normal" font-weight="bold" fill="rgb(66, 67, 67)">Extend blog post list</text><line id="051c3077-7814-46bd-bdd3-24b834dc7fe3" x1="1217.2" y1="-253.8" x2="1321.2" y2="-253.8" stroke="rgb(222, 223, 224)" stroke-width="0.4" fill="transparent"></line><text id="1a946280-b242-428f-9903-891e91f2a40a__0" x="1216.98515625" y="-264.40000000000003" font-size="1.375em" font-family="Segoe UI" font-style="normal" font-weight="bold" fill="rgb(66, 67, 67)">4</text><rect id="fb2f9a90-0cb8-4047-86b4-b1ab8ced0312" x="1054.6000000000001" y="-177.20000000000002" width="139.20000000000002" height="48" style="fill: rgb(53, 53, 53)"></rect><text id="0faf55b1-3e9b-4871-a5ca-884531b30eb1__0" x="1123.4" y="-157.20000000000002" font-size="0.375em" font-family="Segoe UI" font-style="normal" font-weight="normal" fill="rgb(255, 255, 255)">Finding Beauty in</text><text id="0faf55b1-3e9b-4871-a5ca-884531b30eb1__1" x="1123.4" y="-149.20000000000002" font-size="0.375em" font-family="Segoe UI" font-style="normal" font-weight="normal" fill="rgb(255, 255, 255)">the Badlands</text><text id="ba9f209d-2ec7-46e3-ab1e-623975393159__0" x="1123.4" y="-133.20000000000002" font-size="0.275em" font-family="Segoe UI" font-style="normal" font-weight="normal" fill="rgb(12, 170, 220)">2 hours ago</text><text id="e2761110-ba41-4de1-9d84-81f8d63828ca__0" x="1123.4" y="-167.20000000000002" font-size="0.3em" font-family="Georgia" font-style="italic" font-weight="normal" fill="rgb(253, 253, 253)">Adventures</text><rect id="081dd4c1-e91b-48f7-988d-2a3026eb5c1c" x="1054.6000000000001" y="-177.20000000000002" width="63.2" height="48" fill="url(#img8)"></rect><defs><pattern id="img8" preserveAspectRatio="xMidYMid slice" width="100%" height="100%" viewBox="0 0 1920 1080"><image xlink:href="/resources/44bba594bc5454ca53f1df7ae3dbcb2b" x="0" y="0" width="1920" height="1080"></image></pattern></defs><rect id="7731f76c-4bd8-4981-9821-f63802fdeeac" x="1054.6000000000001" y="-121.2" width="139.20000000000002" height="48" style="fill: rgb(53, 53, 53)"></rect><text id="844ce242-6fea-4625-a8af-4dc9eb5a12c3__0" x="1123.4" y="-101.2" font-size="0.375em" font-family="Segoe UI" font-style="normal" font-weight="normal" fill="rgb(255, 255, 255)">Finding Beauty in</text><text id="844ce242-6fea-4625-a8af-4dc9eb5a12c3__1" x="1123.4" y="-93.2" font-size="0.375em" font-family="Segoe UI" font-style="normal" font-weight="normal" fill="rgb(255, 255, 255)">the Badlands</text><text id="b120fe90-7ded-4424-919b-1b742e4b3627__0" x="1123.4" y="-77.2" font-size="0.275em" font-family="Segoe UI" font-style="normal" font-weight="normal" fill="rgb(12, 170, 220)">2 hours ago</text><text id="481d80dc-8a66-4009-ba72-93e65f968597__0" x="1123.4" y="-111.2" font-size="0.3em" font-family="Georgia" font-style="italic" font-weight="normal" fill="rgb(253, 253, 253)">Adventures</text><rect id="4bfac1fc-8817-4dde-9b79-3c05f5de8d00" x="1054.6000000000001" y="-121.2" width="63.2" height="48" fill="url(#img9)"></rect><defs><pattern id="img9" preserveAspectRatio="xMidYMid slice" width="100%" height="100%" viewBox="0 0 1920 1080"><image xlink:href="/resources/ebdade009c0e58c2924a65b4ab9bff7f" x="0" y="0" width="1920" height="1080"></image></pattern></defs><rect id="5a594fc6-a600-4fe6-8747-99c7c3b3ed03" x="1054.6000000000001" y="-65.2" width="139.20000000000002" height="48" style="fill: rgb(53, 53, 53)"></rect><text id="1bb1c401-1d19-45d2-97e7-d0d40f4ff9e7__0" x="1123.4" y="-45.2" font-size="0.375em" font-family="Segoe UI" font-style="normal" font-weight="normal" fill="rgb(255, 255, 255)">Finding Beauty in</text><text id="1bb1c401-1d19-45d2-97e7-d0d40f4ff9e7__1" x="1123.4" y="-37.2" font-size="0.375em" font-family="Segoe UI" font-style="normal" font-weight="normal" fill="rgb(255, 255, 255)">the Badlands</text><text id="559154d6-a583-43b6-9dad-1ec622662aad__0" x="1123.4" y="-21.200000000000003" font-size="0.275em" font-family="Segoe UI" font-style="normal" font-weight="normal" fill="rgb(12, 170, 220)">2 hours ago</text><text id="4eacfb79-4011-443b-835a-ba2ddd89f077__0" x="1123.4" y="-55.2" font-size="0.3em" font-family="Georgia" font-style="italic" font-weight="normal" fill="rgb(253, 253, 253)">Adventures</text><rect id="6a7707f4-ce00-4ac6-9f5c-0809252a1ebb" x="1054.6000000000001" y="-65.2" width="63.2" height="48" fill="url(#img10)"></rect><defs><pattern id="img10" preserveAspectRatio="xMidYMid slice" width="100%" height="100%" viewBox="0 0 1920 1080"><image xlink:href="/resources/5ca09c06846d6136bf2ba3f39c2b8432" x="0" y="0" width="1920" height="1080"></image></pattern></defs><text id="36a01e69-759d-4e76-84b1-02e646fb40cb__0" x="1054.4" y="-182.8" font-size="0.275em" font-family="Segoe UI" font-style="normal" font-weight="bold" fill="rgb(12, 170, 220)">LATEST ADVENTURES</text><rect id="9cb09128-270a-4e00-bf23-ac6156c5522e" x="1045.6000000000001" y="-288" width="153.60000000000002" height="92" fill="url(#img11)"></rect><defs><pattern id="img11" preserveAspectRatio="xMidYMid slice" width="100%" height="100%" viewBox="0 0 810 508"><image xlink:href="/resources/c3f42ed89af66e3fbee2ca6025985939" x="0" y="0" width="810" height="508"></image></pattern></defs><text id="7d738478-0db4-4ee5-9456-69dca41add46__0" x="1058" y="-220.8" font-size="0.325em" font-family="Georgia" font-style="italic" font-weight="normal" fill="rgb(255, 255, 255)">by Talin Wadsworth</text><text id="a1edc059-6f8e-4238-a6f2-0e0f8a6a0141__0" x="1058.4" y="-230.4" font-size="0.575em" font-family="Segoe UI" font-style="normal" font-weight="bold" fill="rgb(255, 255, 255)">GEAR GUIDE</text><text id="7c3da1ae-5ade-4b6f-941d-829bceed4aac__0" x="1058.4" y="-243.60000000000002" font-size="0.275em" font-family="Segoe UI" font-style="normal" font-weight="bold" fill="rgb(255, 255, 255)">FEATURED</text><path id="3c977cc2-ebd7-4136-aa28-51bf0b1697b8" transform="translate(1109.2,-567.6000488281251) scale(0.4 0.4)" d="M 205.6604309082031 739.58203125 C 208.5573883056641 740.1820678710938 210.8544006347656 742.4625854492188 211.4629516601563 745.34326171875 C 212.6714782714844 750.7445068359375 208.1974334716797 755.4255981445313 202.8834533691406 754.6969604492188 C 199.3779296875 754.3367309570313 196.5923461914063 751.4646606445313 196.1124114990234 748.1039428710938 C 195.5038452148438 742.82275390625 200.2178802490234 738.3818969726563 205.6604309082031 739.58203125 L 205.6604309082031 739.58203125 Z M 213.9999694824219 747.6237182617188 C 213.9999694824219 746.7835693359375 213.9999694824219 745.9434204101563 213.7599792480469 745.1033935546875 C 213.0314331054688 741.142333984375 209.7659301757813 738.0215454101563 205.7804260253906 737.181396484375 C 199.3779296875 735.9811401367188 193.6953887939453 740.9022216796875 193.6953887939453 747.143798828125 C 193.6953887939453 749.4241333007813 194.4153289794922 751.4646606445313 195.7523956298828 753.14501953125 C 193.6953887939453 755.1768798828125 190.7898101806641 757.9375610351563 190.5498046875 758.1775512695313 C 190.1898193359375 758.65771484375 189.581298828125 759.7379760742188 190.4298248291016 760.578125 C 191.2783355712891 761.4182739257813 192.3668670654297 760.8179931640625 192.8468322753906 760.4581909179688 L 198.0408630371094 755.2969970703125 C 199.7378845214844 756.4972534179688 201.7949066162109 757.21728515625 204.0919494628906 757.21728515625 C 209.2859497070313 757.21728515625 213.7599792480469 753.0250244140625 213.9999694824219 747.6237182617188 L 213.9999694824219 747.6237182617188 Z" stroke="rgba(0, 0, 0, 0)" stroke-width="0.4" style="fill: rgb(255, 255, 255)"></path><path id="b964b8f6-1b21-491d-b531-b597f335a498" transform="translate(1081.1939453125,-304.40000000000003) scale(0.4 0.4) rotate(90)" d="M 97.46916961669922 59.76226043701172 C 98.18206787109375 59.06143569946289 98.18206787109375 57.91353225708008 97.46916961669922 57.20061874389648 C 96.75624084472656 56.49979782104492 95.60836029052734 56.49979782104492 94.90752410888672 57.20061874389648 L 88.50341796875 63.60472106933594 L 82.08724975585938 57.20061874389648 C 81.38643646240234 56.49979782104492 80.238525390625 56.49979782104492 79.52561187744141 57.20061874389648 C 78.82479095458984 57.91353225708008 78.82479095458984 59.06143569946289 79.52561187744141 59.76226043701172 L 87.22261047363281 67.45925903320313 C 87.92342376708984 68.16007995605469 89.07134246826172 68.16007995605469 89.78425598144531 67.45925903320313 L 97.46916961669922 59.76226043701172 Z" stroke="rgba(0, 0, 0, 0)" stroke-width="0.4" style="fill: rgb(255, 255, 255)"></path><path id="2fc046a9-7148-4381-8530-150cd21a34cd" transform="translate(1186.4,-285.2) scale(0.4 0.4)" d="M 1.502458333969116 1.026315808296204 L 1.502458333969116 1.026315808296204 C 0.9472132325172424 1.026315808296204 0.5 1.495540976524353 0.5 2.079011678695679 L 0.5 8.920988082885742 C 0.5 9.501893043518066 0.9490637183189392 9.973684310913086 1.502458333969116 9.973684310913086 L 20.9975414276123 9.973684310913086 C 21.55278587341309 9.973684310913086 22 9.504459381103516 22 8.920988082885742 L 22 2.079011678695679 C 22 1.498106837272644 21.55093574523926 1.026315808296204 20.9975414276123 1.026315808296204 L 1.502458333969116 1.026315808296204 Z M 1.502458333969116 0.5 L 1.502458333969116 0.5 L 20.9975414276123 0.5 C 21.82662010192871 0.5 22.5 1.206947565078735 22.5 2.079011678695679 L 22.5 8.920988082885742 C 22.5 9.796819686889648 21.82732582092285 10.5 20.9975414276123 10.5 L 1.502458333969116 10.5 C 0.6733803153038025 10.5 0 9.793052673339844 0 8.920988082885742 L 0 2.079011678695679 C 0 1.203180551528931 0.6726735234260559 0.5 1.502458333969116 0.5 L 1.502458333969116 0.5 Z" stroke="rgba(0, 0, 0, 0)" stroke-width="0.4" style="fill: rgb(255, 255, 255)"></path><rect id="d0968d45-bbc1-4021-874e-1d0c83df1945" x="1186.8" y="-284.6" width="3.6" height="3.2" stroke="rgba(0, 0, 0, 0)" stroke-width="0.4" style="fill: rgb(255, 255, 255)"></rect><path id="20cf03c9-272c-4d96-8845-e60ac697c256" transform="translate(1186.4,-285.2) scale(0.4 0.4)" d="M 24.5 5.732277870178223 C 24.5 6.613896369934082 23.84807205200195 7.343249320983887 23 7.464555740356445 L 23 4 C 23.84807205200195 4.121306419372559 24.5 4.850659370422363 24.5 5.732277870178223 Z" stroke="rgba(0, 0, 0, 0)" stroke-width="0.4" style="fill: rgb(255, 255, 255)"></path><text id="57726011-b5ca-44fb-a066-27573f7a4ec7__0" x="1175.2" y="-281.40000000000003" font-size="0.3em" font-family="Segoe UI" font-style="normal" font-weight="normal" fill="rgb(243, 250, 255)">42%</text><path id="3271f1ad-54eb-47b2-bc05-0d4d8c4abd7b" transform="translate(1049.6000000000001,-286.8) scale(0.4 0.4)" d="M 306.4277648925781 14.36894607543945 L 306.4277648925781 10.81073188781738 L 308.1397705078125 12.67517852783203 L 306.4277648925781 14.36894607543945 L 306.4277648925781 14.36894607543945 L 306.4277648925781 14.36894607543945 L 306.4277648925781 14.36894607543945 Z M 308.2183532714844 7.346535682678223 L 306.4277648925781 9.147821426391602 L 306.4277648925781 5.735214233398438 L 308.2183532714844 7.346535682678223 L 308.2183532714844 7.346535682678223 L 308.2183532714844 7.346535682678223 L 308.2183532714844 7.346535682678223 Z M 306.8578796386719 10.01085662841797 L 309.5148315429688 7.346535682678223 L 305.5505981445313 3.5 L 305.4569396972656 3.5 L 305.4569396972656 8.849857330322266 L 302.76611328125 6.028839111328125 L 302 6.829196453094482 L 305.2376403808594 10.01085662841797 L 302 13.19203567504883 L 302.76611328125 13.99239253997803 L 305.4569396972656 11.1713752746582 L 305.4569396972656 16.52075004577637 L 305.6282348632813 16.52075004577637 L 309.5534057617188 12.66457176208496 L 306.8578796386719 10.01085662841797 L 306.8578796386719 10.01085662841797 Z" stroke="rgba(0, 0, 0, 0)" stroke-width="0.4" style="fill: rgb(255, 255, 255)"></path><text id="10a215ce-9348-4248-b882-21487aa6f05f__0" x="1114.8" y="-281" font-size="0.3em" font-family="Segoe UI" font-style="normal" font-weight="normal" fill="rgb(243, 250, 255)">9:41 AM</text><path id="cc1d8e43-2c89-4249-bd3f-5527a7e00b23" transform="translate(1049.8,-287.2) scale(0.4 0.4)" d="M 90.49575042724609 7.020876884460449 C 92.43552398681641 7.020876884460449 94.20336151123047 7.735452175140381 95.55885314941406 8.907177925109863 L 96.5 7.868109703063965 C 94.89459991455078 6.474465847015381 92.79788970947266 5.5 90.49575042724609 5.5 C 88.19711303710938 5.5 86.10340118408203 6.47150707244873 84.5 7.86071252822876 L 85.43914794921875 8.901260375976563 C 86.79364013671875 7.732986450195313 88.55847930908203 7.020876884460449 90.49575042724609 7.020876884460449 L 90.49575042724609 7.020876884460449 Z M 90.49575042724609 10.02021884918213 C 91.65831756591797 10.02021884918213 92.72042083740234 10.44235610961914 93.53961181640625 11.13769817352295 L 94.53524017333984 10.03797245025635 C 93.45164489746094 9.107890129089355 92.04217529296875 8.50032901763916 90.49575042724609 8.50032901763916 C 88.95233154296875 8.50032901763916 87.54386138916016 9.106410980224609 86.46126556396484 10.03353404998779 L 87.45539093017578 11.13473987579346 C 88.27408599853516 10.44087696075439 89.33468627929688 10.02021884918213 90.49575042724609 10.02021884918213 L 90.49575042724609 10.02021884918213 Z M 92.54347991943359 12.23742485046387 C 91.98918914794922 11.77731513977051 91.27545928955078 11.45873928070068 90.49525451660156 11.45873928070068 C 89.71654510498047 11.45873928070068 89.00381469726563 11.77682209014893 88.44951629638672 12.23495864868164 L 90.49525451660156 14.5 L 92.54347991943359 12.23742485046387 L 92.54347991943359 12.23742485046387 Z" stroke="rgba(0, 0, 0, 0)" stroke-width="0.4" style="fill: rgb(255, 255, 255)"></path><text id="e6a928b3-4a71-4a84-b7f7-be9ea3231399__0" x="1067.2" y="-281.40000000000003" font-size="0.3em" font-family="Segoe UI" font-style="normal" font-weight="normal" fill="rgb(243, 250, 255)">Carrier</text><circle id="aa6c31f9-e908-4bd7-a994-143c6c2702fb" cx="1053.5" cy="-282.7" r="1.1" stroke="rgba(0, 0, 0, 0)" stroke-width="0.4" style="fill: rgb(255, 255, 255)"></circle><circle id="a90996da-2dae-4b8b-924b-20b79de744d8" cx="1056.3" cy="-282.7" r="1.1" stroke="rgba(0, 0, 0, 0)" stroke-width="0.4" style="fill: rgb(255, 255, 255)"></circle><circle id="969c96b1-3daa-4f09-a28a-f24a7b22bc7f" cx="1059.1" cy="-282.7" r="1.1" stroke="rgba(0, 0, 0, 0)" stroke-width="0.4" style="fill: rgb(255, 255, 255)"></circle><path id="b70d5456-35ca-41d6-b0b6-cf8ec82a2ea1" transform="translate(1052.4,-283.8) scale(0.4 0.4)" d="M 23.75 5 L 23.75 5 C 24.99264144897461 5 26 3.992640733718872 26 2.75 C 26 1.507359266281128 24.99264144897461 0.5 23.75 0.5 C 22.50735855102539 0.5 21.5 1.507359266281128 21.5 2.75 C 21.5 3.992640733718872 22.50735855102539 5 23.75 5 L 23.75 5 Z M 23.75 5.5 L 23.75 5.5 C 22.23121643066406 5.5 21 4.268783092498779 21 2.75 C 21 1.231216907501221 22.23121643066406 0 23.75 0 C 25.26878356933594 0 26.5 1.231216907501221 26.5 2.75 C 26.5 4.268783092498779 25.26878356933594 5.5 23.75 5.5 L 23.75 5.5 Z" stroke="rgba(0, 0, 0, 0)" stroke-width="0.4" style="fill: rgb(255, 255, 255)"></path><path id="1934152c-9ddc-4738-a79f-269162097c51" transform="translate(1052.4,-283.8) scale(0.4 0.4)" d="M 30.75 5 L 30.75 5 C 31.99264144897461 5 33 3.992640733718872 33 2.75 C 33 1.507359266281128 31.99264144897461 0.5 30.75 0.5 C 29.50735855102539 0.5 28.5 1.507359266281128 28.5 2.75 C 28.5 3.992640733718872 29.50735855102539 5 30.75 5 L 30.75 5 Z M 30.75 5.5 L 30.75 5.5 C 29.23121643066406 5.5 28 4.268783092498779 28 2.75 C 28 1.231216907501221 29.23121643066406 0 30.75 0 C 32.26878356933594 0 33.5 1.231216907501221 33.5 2.75 C 33.5 4.268783092498779 32.26878356933594 5.5 30.75 5.5 L 30.75 5.5 Z" stroke="rgba(0, 0, 0, 0)" stroke-width="0.4" style="fill: rgb(255, 255, 255)"></path></svg>